<?xml version="1.0" encoding="UTF-8" standalone="no"?>
<!DOCTYPE svg PUBLIC "-//W3C//DTD SVG 1.1//EN"
 "http://www.w3.org/Graphics/SVG/1.1/DTD/svg11.dtd">
<!-- Generated by graphviz version 2.43.0 (0)
 -->
<!-- Title: pastafarianism Pages: 1 -->
<svg width="1457pt" height="280pt"
 viewBox="0.00 0.00 1456.57 280.00" xmlns="http://www.w3.org/2000/svg" xmlns:xlink="http://www.w3.org/1999/xlink">
<g id="graph0" class="graph" transform="scale(1 1) rotate(0) translate(4 276)">
<title>pastafarianism</title>
<polygon fill="white" stroke="transparent" points="-4,4 -4,-276 1452.57,-276 1452.57,4 -4,4"/>
<!-- System Skill Pick -->
<g id="node1" class="node">
<title>System Skill Pick</title>
<polygon fill="gold" stroke="black" points="455.49,-272 298.82,-272 258.52,-216 415.18,-216 455.49,-272"/>
<text text-anchor="middle" x="357" y="-246.8" font-family="Times,serif" font-size="9.00">System Skill Pick</text>
<text text-anchor="middle" x="357" y="-236.8" font-family="Times,serif" font-size="9.00">SuccessOnAll</text>
</g>
<!-- System State -->
<g id="node2" class="node">
<title>System State</title>
<polygon fill="orange" stroke="black" points="287.5,-180 198.5,-180 198.5,-144 287.5,-144 287.5,-180"/>
<text text-anchor="middle" x="243" y="-159.8" font-family="Times,serif" font-size="9.00">Ⓜ System State</text>
</g>
<!-- System Skill Pick&#45;&gt;System State -->
<g id="edge1" class="edge">
<title>System Skill Pick&#45;&gt;System State</title>
<path fill="none" stroke="black" d="M318.41,-215.92C304.53,-206.17 289.01,-195.29 275.68,-185.93"/>
<polygon fill="black" stroke="black" points="277.47,-182.91 267.28,-180.03 273.45,-188.64 277.47,-182.91"/>
</g>
<!-- Pick -->
<g id="node6" class="node">
<title>Pick</title>
<polygon fill="orange" stroke="black" points="565,-180 511,-180 511,-144 565,-144 565,-180"/>
<text text-anchor="middle" x="538" y="-159.8" font-family="Times,serif" font-size="9.00">Ⓜ Pick</text>
</g>
<!-- System Skill Pick&#45;&gt;Pick -->
<g id="edge5" class="edge">
<title>System Skill Pick&#45;&gt;Pick</title>
<path fill="none" stroke="black" d="M416.27,-216.81C444.3,-204.41 476.89,-190.01 501.3,-179.22"/>
<polygon fill="black" stroke="black" points="502.82,-182.38 510.55,-175.13 499.99,-175.98 502.82,-182.38"/>
</g>
<!-- Report Status -->
<g id="node3" class="node">
<title>Report Status</title>
<ellipse fill="gray" stroke="black" cx="68" cy="-90" rx="46.38" ry="18"/>
<text text-anchor="middle" x="68" y="-87.8" font-family="Times,serif" font-size="9.00">Report Status</text>
</g>
<!-- System State&#45;&gt;Report Status -->
<g id="edge2" class="edge">
<title>System State&#45;&gt;Report Status</title>
<path fill="none" stroke="black" d="M200.19,-143.88C172.22,-132.69 135.93,-118.17 108.44,-107.18"/>
<polygon fill="black" stroke="black" points="109.7,-103.91 99.12,-103.45 107.1,-110.41 109.7,-103.91"/>
</g>
<!-- Robot Status -->
<g id="node4" class="node">
<title>Robot Status</title>
<ellipse fill="gray" stroke="black" cx="176" cy="-90" rx="43.76" ry="18"/>
<text text-anchor="middle" x="176" y="-87.8" font-family="Times,serif" font-size="9.00">Robot Status</text>
</g>
<!-- System State&#45;&gt;Robot Status -->
<g id="edge3" class="edge">
<title>System State&#45;&gt;Robot Status</title>
<path fill="none" stroke="black" d="M226.44,-143.7C218,-134.88 207.62,-124.03 198.47,-114.47"/>
<polygon fill="black" stroke="black" points="200.9,-111.95 191.46,-107.14 195.84,-116.79 200.9,-111.95"/>
</g>
<!-- Object Detector Status -->
<g id="node5" class="node">
<title>Object Detector Status</title>
<ellipse fill="gray" stroke="black" cx="309" cy="-90" rx="71.03" ry="18"/>
<text text-anchor="middle" x="309" y="-87.8" font-family="Times,serif" font-size="9.00">Object Detector Status</text>
</g>
<!-- System State&#45;&gt;Object Detector Status -->
<g id="edge4" class="edge">
<title>System State&#45;&gt;Object Detector Status</title>
<path fill="none" stroke="black" d="M259.32,-143.7C267.43,-135.09 277.37,-124.55 286.22,-115.17"/>
<polygon fill="black" stroke="black" points="289.02,-117.3 293.33,-107.62 283.92,-112.5 289.02,-117.3"/>
</g>
<!-- Active? -->
<g id="node7" class="node">
<title>Active?</title>
<ellipse fill="gray" stroke="black" cx="427" cy="-90" rx="28.74" ry="18"/>
<text text-anchor="middle" x="427" y="-87.8" font-family="Times,serif" font-size="9.00">Active?</text>
</g>
<!-- Pick&#45;&gt;Active? -->
<g id="edge6" class="edge">
<title>Pick&#45;&gt;Active?</title>
<path fill="none" stroke="black" d="M510.85,-143.88C493.91,-133.19 472.15,-119.47 455.04,-108.68"/>
<polygon fill="black" stroke="black" points="456.89,-105.71 446.57,-103.34 453.16,-111.63 456.89,-105.71"/>
</g>
<!-- Move to Pick Position -->
<g id="node8" class="node">
<title>Move to Pick Position</title>
<polygon fill="orange" stroke="black" points="602,-108 474,-108 474,-72 602,-72 602,-108"/>
<text text-anchor="middle" x="538" y="-87.8" font-family="Times,serif" font-size="9.00">Ⓜ Move to Pick Position</text>
</g>
<!-- Pick&#45;&gt;Move to Pick Position -->
<g id="edge7" class="edge">
<title>Pick&#45;&gt;Move to Pick Position</title>
<path fill="none" stroke="black" d="M538,-143.7C538,-135.98 538,-126.71 538,-118.11"/>
<polygon fill="black" stroke="black" points="541.5,-118.1 538,-108.1 534.5,-118.1 541.5,-118.1"/>
</g>
<!-- Pick* -->
<g id="node16" class="node">
<title>Pick*</title>
<polygon fill="orange" stroke="black" points="1014,-108 960,-108 960,-72 1014,-72 1014,-108"/>
<text text-anchor="middle" x="987" y="-87.8" font-family="Times,serif" font-size="9.00">Ⓜ Pick*</text>
</g>
<!-- Pick&#45;&gt;Pick* -->
<g id="edge15" class="edge">
<title>Pick&#45;&gt;Pick*</title>
<path fill="none" stroke="black" d="M565.08,-156.78C641.96,-144.79 861.73,-110.53 949.82,-96.8"/>
<polygon fill="black" stroke="black" points="950.55,-100.23 959.89,-95.23 949.47,-93.31 950.55,-100.23"/>
</g>
<!-- Finish Pick -->
<g id="node20" class="node">
<title>Finish Pick</title>
<polygon fill="orange" stroke="black" points="1325,-108 1245,-108 1245,-72 1325,-72 1325,-108"/>
<text text-anchor="middle" x="1285" y="-87.8" font-family="Times,serif" font-size="9.00">Ⓜ Finish Pick</text>
</g>
<!-- Pick&#45;&gt;Finish Pick -->
<g id="edge19" class="edge">
<title>Pick&#45;&gt;Finish Pick</title>
<path fill="none" stroke="black" d="M565.03,-158.47C675,-148.16 1089.8,-109.29 1234.68,-95.72"/>
<polygon fill="black" stroke="black" points="1235.01,-99.2 1244.64,-94.78 1234.36,-92.23 1235.01,-99.2"/>
</g>
<!-- Object Detected? -->
<g id="node9" class="node">
<title>Object Detected?</title>
<ellipse fill="gray" stroke="black" cx="56" cy="-18" rx="56.01" ry="18"/>
<text text-anchor="middle" x="56" y="-15.8" font-family="Times,serif" font-size="9.00">Object Detected?</text>
</g>
<!-- Move to Pick Position&#45;&gt;Object Detected? -->
<g id="edge8" class="edge">
<title>Move to Pick Position&#45;&gt;Object Detected?</title>
<path fill="none" stroke="black" d="M474,-73.62C470.96,-73.04 467.95,-72.5 465,-72 313.41,-46.52 272.24,-63.53 121,-36 116.23,-35.13 111.3,-34.1 106.38,-32.97"/>
<polygon fill="black" stroke="black" points="106.9,-29.5 96.36,-30.57 105.26,-36.31 106.9,-29.5"/>
</g>
<!-- Robot Stationary? -->
<g id="node10" class="node">
<title>Robot Stationary?</title>
<ellipse fill="gray" stroke="black" cx="187" cy="-18" rx="57.32" ry="18"/>
<text text-anchor="middle" x="187" y="-15.8" font-family="Times,serif" font-size="9.00">Robot Stationary?</text>
</g>
<!-- Move to Pick Position&#45;&gt;Robot Stationary? -->
<g id="edge9" class="edge">
<title>Move to Pick Position&#45;&gt;Robot Stationary?</title>
<path fill="none" stroke="black" d="M473.96,-73.85C470.93,-73.21 467.94,-72.59 465,-72 371.31,-53.15 346.47,-55.94 253,-36 248.33,-35 243.49,-33.9 238.65,-32.74"/>
<polygon fill="black" stroke="black" points="239.32,-29.3 228.78,-30.32 237.65,-36.1 239.32,-29.3"/>
</g>
<!-- Release Gripper -->
<g id="node11" class="node">
<title>Release Gripper</title>
<ellipse fill="gray" stroke="black" cx="315" cy="-18" rx="53.23" ry="18"/>
<text text-anchor="middle" x="315" y="-15.8" font-family="Times,serif" font-size="9.00">Release Gripper</text>
</g>
<!-- Move to Pick Position&#45;&gt;Release Gripper -->
<g id="edge10" class="edge">
<title>Move to Pick Position&#45;&gt;Release Gripper</title>
<path fill="none" stroke="black" d="M483.74,-71.97C446.62,-60.31 397.88,-45.02 362.34,-33.86"/>
<polygon fill="black" stroke="black" points="363.27,-30.48 352.68,-30.83 361.18,-37.16 363.27,-30.48"/>
</g>
<!-- Wait 1 sec -->
<g id="node12" class="node">
<title>Wait 1 sec</title>
<ellipse fill="gray" stroke="black" cx="423" cy="-18" rx="36.9" ry="18"/>
<text text-anchor="middle" x="423" y="-15.8" font-family="Times,serif" font-size="9.00">Wait 1 sec</text>
</g>
<!-- Move to Pick Position&#45;&gt;Wait 1 sec -->
<g id="edge11" class="edge">
<title>Move to Pick Position&#45;&gt;Wait 1 sec</title>
<path fill="none" stroke="black" d="M509.87,-71.88C492.88,-61.54 471.22,-48.35 453.78,-37.73"/>
<polygon fill="black" stroke="black" points="455.45,-34.65 445.09,-32.44 451.81,-40.63 455.45,-34.65"/>
</g>
<!-- Robot Stationary?* -->
<g id="node13" class="node">
<title>Robot Stationary?*</title>
<ellipse fill="gray" stroke="black" cx="538" cy="-18" rx="60.09" ry="18"/>
<text text-anchor="middle" x="538" y="-15.8" font-family="Times,serif" font-size="9.00">Robot Stationary?*</text>
</g>
<!-- Move to Pick Position&#45;&gt;Robot Stationary?* -->
<g id="edge12" class="edge">
<title>Move to Pick Position&#45;&gt;Robot Stationary?*</title>
<path fill="none" stroke="black" d="M538,-71.7C538,-63.98 538,-54.71 538,-46.11"/>
<polygon fill="black" stroke="black" points="541.5,-46.1 538,-36.1 534.5,-46.1 541.5,-46.1"/>
</g>
<!-- Send Pick Position -->
<g id="node14" class="node">
<title>Send Pick Position</title>
<ellipse fill="gray" stroke="black" cx="675" cy="-18" rx="58.78" ry="18"/>
<text text-anchor="middle" x="675" y="-15.8" font-family="Times,serif" font-size="9.00">Send Pick Position</text>
</g>
<!-- Move to Pick Position&#45;&gt;Send Pick Position -->
<g id="edge13" class="edge">
<title>Move to Pick Position&#45;&gt;Send Pick Position</title>
<path fill="none" stroke="black" d="M571.52,-71.88C591.3,-61.77 616.41,-48.94 636.94,-38.45"/>
<polygon fill="black" stroke="black" points="638.7,-41.48 646.01,-33.81 635.51,-35.25 638.7,-41.48"/>
</g>
<!-- Wait 1 sec* -->
<g id="node15" class="node">
<title>Wait 1 sec*</title>
<ellipse fill="gray" stroke="black" cx="791" cy="-18" rx="39.02" ry="18"/>
<text text-anchor="middle" x="791" y="-15.8" font-family="Times,serif" font-size="9.00">Wait 1 sec*</text>
</g>
<!-- Move to Pick Position&#45;&gt;Wait 1 sec* -->
<g id="edge14" class="edge">
<title>Move to Pick Position&#45;&gt;Wait 1 sec*</title>
<path fill="none" stroke="black" d="M602.12,-73.95C642.74,-64.04 696.25,-50.29 743,-36 745.91,-35.11 748.9,-34.15 751.91,-33.16"/>
<polygon fill="black" stroke="black" points="753.09,-36.46 761.44,-29.93 750.84,-29.83 753.09,-36.46"/>
</g>
<!-- Robot At Pick Position? -->
<g id="node17" class="node">
<title>Robot At Pick Position?</title>
<ellipse fill="gray" stroke="black" cx="919" cy="-18" rx="71.03" ry="18"/>
<text text-anchor="middle" x="919" y="-15.8" font-family="Times,serif" font-size="9.00">Robot At Pick Position?</text>
</g>
<!-- Pick*&#45;&gt;Robot At Pick Position? -->
<g id="edge16" class="edge">
<title>Pick*&#45;&gt;Robot At Pick Position?</title>
<path fill="none" stroke="black" d="M970.19,-71.7C961.75,-63.01 951.39,-52.34 942.21,-42.89"/>
<polygon fill="black" stroke="black" points="944.63,-40.36 935.15,-35.62 939.61,-45.23 944.63,-40.36"/>
</g>
<!-- Close Gripper -->
<g id="node18" class="node">
<title>Close Gripper</title>
<ellipse fill="gray" stroke="black" cx="1055" cy="-18" rx="46.53" ry="18"/>
<text text-anchor="middle" x="1055" y="-15.8" font-family="Times,serif" font-size="9.00">Close Gripper</text>
</g>
<!-- Pick*&#45;&gt;Close Gripper -->
<g id="edge17" class="edge">
<title>Pick*&#45;&gt;Close Gripper</title>
<path fill="none" stroke="black" d="M1003.81,-71.7C1012.38,-62.88 1022.92,-52.03 1032.2,-42.47"/>
<polygon fill="black" stroke="black" points="1034.86,-44.76 1039.32,-35.14 1029.84,-39.88 1034.86,-44.76"/>
</g>
<!-- Wait 1 sec** -->
<g id="node19" class="node">
<title>Wait 1 sec**</title>
<ellipse fill="gray" stroke="black" cx="1162" cy="-18" rx="42.29" ry="18"/>
<text text-anchor="middle" x="1162" y="-15.8" font-family="Times,serif" font-size="9.00">Wait 1 sec**</text>
</g>
<!-- Pick*&#45;&gt;Wait 1 sec** -->
<g id="edge18" class="edge">
<title>Pick*&#45;&gt;Wait 1 sec**</title>
<path fill="none" stroke="black" d="M1014.35,-78.06C1043.48,-66.41 1089.86,-47.86 1122.87,-34.66"/>
<polygon fill="black" stroke="black" points="1124.23,-37.88 1132.22,-30.91 1121.63,-31.38 1124.23,-37.88"/>
</g>
<!-- Robot Stationary?** -->
<g id="node21" class="node">
<title>Robot Stationary?**</title>
<ellipse fill="gray" stroke="black" cx="1285" cy="-18" rx="62.21" ry="18"/>
<text text-anchor="middle" x="1285" y="-15.8" font-family="Times,serif" font-size="9.00">Robot Stationary?**</text>
</g>
<!-- Finish Pick&#45;&gt;Robot Stationary?** -->
<g id="edge20" class="edge">
<title>Finish Pick&#45;&gt;Robot Stationary?**</title>
<path fill="none" stroke="black" d="M1285,-71.7C1285,-63.98 1285,-54.71 1285,-46.11"/>
<polygon fill="black" stroke="black" points="1288.5,-46.1 1285,-36.1 1281.5,-46.1 1288.5,-46.1"/>
</g>
<!-- Finish Pick* -->
<g id="node22" class="node">
<title>Finish Pick*</title>
<ellipse fill="gray" stroke="black" cx="1407" cy="-18" rx="41.64" ry="18"/>
<text text-anchor="middle" x="1407" y="-15.8" font-family="Times,serif" font-size="9.00">Finish Pick*</text>
</g>
<!-- Finish Pick&#45;&gt;Finish Pick* -->
<g id="edge21" class="edge">
<title>Finish Pick&#45;&gt;Finish Pick*</title>
<path fill="none" stroke="black" d="M1314.85,-71.88C1332.71,-61.63 1355.45,-48.58 1373.86,-38.01"/>
<polygon fill="black" stroke="black" points="1375.85,-40.91 1382.79,-32.9 1372.37,-34.84 1375.85,-40.91"/>
</g>
</g>
</svg>
