<?xml version="1.0" encoding="UTF-8" standalone="no"?>
<!DOCTYPE svg PUBLIC "-//W3C//DTD SVG 1.1//EN"
 "http://www.w3.org/Graphics/SVG/1.1/DTD/svg11.dtd">
<!-- Generated by graphviz version 2.43.0 (0)
 -->
<!-- Title: pastafarianism Pages: 1 -->
<svg width="2075pt" height="352pt"
 viewBox="0.00 0.00 2075.40 352.00" xmlns="http://www.w3.org/2000/svg" xmlns:xlink="http://www.w3.org/1999/xlink">
<g id="graph0" class="graph" transform="scale(1 1) rotate(0) translate(4 348)">
<title>pastafarianism</title>
<polygon fill="white" stroke="transparent" points="-4,4 -4,-348 2071.4,-348 2071.4,4 -4,4"/>
<!-- System Skill Pick -->
<g id="node1" class="node">
<title>System Skill Pick</title>
<polygon fill="gold" stroke="black" points="532.88,-344 376.22,-344 335.91,-288 492.58,-288 532.88,-344"/>
<text text-anchor="middle" x="434.4" y="-318.8" font-family="Times,serif" font-size="9.00">System Skill Pick</text>
<text text-anchor="middle" x="434.4" y="-308.8" font-family="Times,serif" font-size="9.00">SuccessOnAll</text>
</g>
<!-- System State -->
<g id="node2" class="node">
<title>System State</title>
<polygon fill="orange" stroke="black" points="227.9,-108 138.9,-108 138.9,-72 227.9,-72 227.9,-108"/>
<text text-anchor="middle" x="183.4" y="-87.8" font-family="Times,serif" font-size="9.00">Ⓜ System State</text>
</g>
<!-- System Skill Pick&#45;&gt;System State -->
<g id="edge1" class="edge">
<title>System Skill Pick&#45;&gt;System State</title>
<path fill="none" stroke="black" d="M404.12,-287.98C354.69,-243.87 257.47,-157.1 210.31,-115.02"/>
<polygon fill="black" stroke="black" points="212.44,-112.23 202.65,-108.18 207.78,-117.45 212.44,-112.23"/>
</g>
<!-- Pick -->
<g id="node6" class="node">
<title>Pick</title>
<polygon fill="orange" stroke="black" points="670.4,-252 616.4,-252 616.4,-216 670.4,-216 670.4,-252"/>
<text text-anchor="middle" x="643.4" y="-231.8" font-family="Times,serif" font-size="9.00">Ⓜ Pick</text>
</g>
<!-- System Skill Pick&#45;&gt;Pick -->
<g id="edge5" class="edge">
<title>System Skill Pick&#45;&gt;Pick</title>
<path fill="none" stroke="black" d="M495.41,-291.65C531.5,-277.83 576.02,-260.79 606.75,-249.03"/>
<polygon fill="black" stroke="black" points="608.13,-252.25 616.22,-245.4 605.63,-245.71 608.13,-252.25"/>
</g>
<!-- Report Status -->
<g id="node3" class="node">
<title>Report Status</title>
<ellipse fill="gray" stroke="blue" cx="37.4" cy="-18" rx="37.29" ry="18"/>
<text text-anchor="middle" x="37.4" y="-16.4" font-family="Times,serif" font-size="7.00" fill="blue">Report Status</text>
</g>
<!-- System State&#45;&gt;Report Status -->
<g id="edge2" class="edge">
<title>System State&#45;&gt;Report Status</title>
<path fill="none" stroke="black" d="M147.68,-71.88C124.78,-60.9 95.19,-46.71 72.43,-35.8"/>
<polygon fill="black" stroke="black" points="73.66,-32.51 63.13,-31.34 70.63,-38.82 73.66,-32.51"/>
</g>
<!-- Robot Status -->
<g id="node4" class="node">
<title>Robot Status</title>
<ellipse fill="gray" stroke="blue" cx="128.4" cy="-18" rx="35.95" ry="18"/>
<text text-anchor="middle" x="128.4" y="-16.4" font-family="Times,serif" font-size="7.00" fill="blue">Robot Status</text>
</g>
<!-- System State&#45;&gt;Robot Status -->
<g id="edge3" class="edge">
<title>System State&#45;&gt;Robot Status</title>
<path fill="none" stroke="black" d="M169.8,-71.7C163.01,-63.05 154.68,-52.46 147.28,-43.04"/>
<polygon fill="black" stroke="black" points="150.01,-40.85 141.08,-35.14 144.51,-45.17 150.01,-40.85"/>
</g>
<!-- Object Detector Status -->
<g id="node5" class="node">
<title>Object Detector Status</title>
<ellipse fill="gray" stroke="blue" cx="238.4" cy="-18" rx="55.63" ry="18"/>
<text text-anchor="middle" x="238.4" y="-16.4" font-family="Times,serif" font-size="7.00" fill="blue">Object Detector Status</text>
</g>
<!-- System State&#45;&gt;Object Detector Status -->
<g id="edge4" class="edge">
<title>System State&#45;&gt;Object Detector Status</title>
<path fill="none" stroke="black" d="M196.99,-71.7C203.62,-63.27 211.7,-52.97 218.96,-43.73"/>
<polygon fill="black" stroke="black" points="221.91,-45.65 225.34,-35.62 216.41,-41.32 221.91,-45.65"/>
</g>
<!-- /robot_gripper -->
<g id="node23" class="node">
<title>/robot_gripper</title>
<polygon fill="white" stroke="blue" points="1762.9,-26.5 1615.9,-26.5 1615.9,-9.5 1762.9,-9.5 1762.9,-26.5"/>
<text text-anchor="middle" x="1689.4" y="-16.1" font-family="Times,serif" font-size="8.00" fill="blue">/robot_gripper: {&#39;rotation&#39;: 0.0,...</text>
</g>
<!-- Robot Status&#45;&gt;/robot_gripper -->
<g id="edge26" class="edge">
<title>Robot Status&#45;&gt;/robot_gripper</title>
<path fill="none" stroke="blue" d="M146.48,-33.99C156.36,-41.65 169.24,-50.02 182.4,-54 257.69,-76.8 1521.12,-68.73 1598.4,-54 1621.49,-49.6 1646.21,-39.44 1664.04,-31.03"/>
<polygon fill="blue" stroke="blue" points="1665.72,-34.1 1673.19,-26.59 1662.67,-27.81 1665.72,-34.1"/>
</g>
<!-- /robot_status -->
<g id="node25" class="node">
<title>/robot_status</title>
<polygon fill="white" stroke="blue" points="1921.4,-26.5 1781.4,-26.5 1781.4,-9.5 1921.4,-9.5 1921.4,-26.5"/>
<text text-anchor="middle" x="1851.4" y="-16.1" font-family="Times,serif" font-size="8.00" fill="blue">/robot_status: {&#39;status&#39;: &#39;busy&#39;}</text>
</g>
<!-- Robot Status&#45;&gt;/robot_status -->
<g id="edge34" class="edge">
<title>Robot Status&#45;&gt;/robot_status</title>
<path fill="none" stroke="blue" d="M146.48,-33.99C156.36,-41.65 169.24,-50.02 182.4,-54 266.46,-79.45 1677.21,-70.95 1763.4,-54 1785.6,-49.63 1809.26,-39.62 1826.45,-31.26"/>
<polygon fill="blue" stroke="blue" points="1828.4,-34.2 1835.76,-26.58 1825.25,-27.94 1828.4,-34.2"/>
</g>
<!-- /robot_pose -->
<g id="node27" class="node">
<title>/robot_pose</title>
<polygon fill="white" stroke="blue" points="2067.4,-26.5 1939.4,-26.5 1939.4,-9.5 2067.4,-9.5 2067.4,-26.5"/>
<text text-anchor="middle" x="2003.4" y="-16.1" font-family="Times,serif" font-size="8.00" fill="blue">/robot_pose: {&#39;x&#39;: 0, &#39;y&#39;: 0, ...</text>
</g>
<!-- Robot Status&#45;&gt;/robot_pose -->
<g id="edge42" class="edge">
<title>Robot Status&#45;&gt;/robot_pose</title>
<path fill="none" stroke="blue" d="M146.48,-33.99C156.36,-41.65 169.24,-50.02 182.4,-54 228.63,-68 1874.12,-63.92 1921.4,-54 1942.06,-49.66 1963.88,-39.8 1979.81,-31.49"/>
<polygon fill="blue" stroke="blue" points="1981.77,-34.41 1988.91,-26.58 1978.44,-28.25 1981.77,-34.41"/>
</g>
<!-- /detected_object -->
<g id="node24" class="node">
<title>/detected_object</title>
<polygon fill="white" stroke="blue" points="1597.9,-26.5 1446.9,-26.5 1446.9,-9.5 1597.9,-9.5 1597.9,-26.5"/>
<text text-anchor="middle" x="1522.4" y="-16.1" font-family="Times,serif" font-size="8.00" fill="blue">/detected_object: {&#39;found&#39;: False}</text>
</g>
<!-- Object Detector Status&#45;&gt;/detected_object -->
<g id="edge29" class="edge">
<title>Object Detector Status&#45;&gt;/detected_object</title>
<path fill="none" stroke="blue" d="M264.03,-34.05C277.81,-41.73 295.41,-50.09 312.4,-54 372.87,-67.93 1368.4,-65.39 1429.4,-54 1453.06,-49.58 1478.44,-39.35 1496.71,-30.91"/>
<polygon fill="blue" stroke="blue" points="1498.28,-34.04 1505.81,-26.59 1495.28,-27.72 1498.28,-34.04"/>
</g>
<!-- Active? -->
<g id="node7" class="node">
<title>Active?</title>
<ellipse fill="gray" stroke="blue" cx="339.4" cy="-18" rx="27" ry="18"/>
<text text-anchor="middle" x="339.4" y="-16.4" font-family="Times,serif" font-size="7.00" fill="blue">Active?</text>
</g>
<!-- Pick&#45;&gt;Active? -->
<g id="edge6" class="edge">
<title>Pick&#45;&gt;Active?</title>
<path fill="none" stroke="black" d="M616.34,-218.76C575.92,-197.03 498.07,-153.3 437.4,-108 409.39,-87.09 380.08,-59.62 360.9,-40.76"/>
<polygon fill="black" stroke="black" points="363.14,-38.06 353.57,-33.5 358.21,-43.03 363.14,-38.06"/>
</g>
<!-- Move to Pick Position -->
<g id="node8" class="node">
<title>Move to Pick Position</title>
<polygon fill="orange" stroke="black" points="707.4,-180 579.4,-180 579.4,-144 707.4,-144 707.4,-180"/>
<text text-anchor="middle" x="643.4" y="-159.8" font-family="Times,serif" font-size="9.00">Ⓜ Move to Pick Position</text>
</g>
<!-- Pick&#45;&gt;Move to Pick Position -->
<g id="edge7" class="edge">
<title>Pick&#45;&gt;Move to Pick Position</title>
<path fill="none" stroke="black" d="M643.4,-215.7C643.4,-207.98 643.4,-198.71 643.4,-190.11"/>
<polygon fill="black" stroke="black" points="646.9,-190.1 643.4,-180.1 639.9,-190.1 646.9,-190.1"/>
</g>
<!-- Pick* -->
<g id="node16" class="node">
<title>Pick*</title>
<polygon fill="orange" stroke="black" points="1044.4,-180 990.4,-180 990.4,-144 1044.4,-144 1044.4,-180"/>
<text text-anchor="middle" x="1017.4" y="-159.8" font-family="Times,serif" font-size="9.00">Ⓜ Pick*</text>
</g>
<!-- Pick&#45;&gt;Pick* -->
<g id="edge15" class="edge">
<title>Pick&#45;&gt;Pick*</title>
<path fill="none" stroke="black" d="M670.59,-227.91C736.58,-215.56 905.23,-183.99 980.34,-169.94"/>
<polygon fill="black" stroke="black" points="981.11,-173.35 990.3,-168.07 979.83,-166.47 981.11,-173.35"/>
</g>
<!-- Finish Pick -->
<g id="node20" class="node">
<title>Finish Pick</title>
<ellipse fill="gray" stroke="blue" cx="1322.4" cy="-18" rx="31.02" ry="18"/>
<text text-anchor="middle" x="1322.4" y="-16.4" font-family="Times,serif" font-size="7.00" fill="blue">Finish Pick</text>
</g>
<!-- Pick&#45;&gt;Finish Pick -->
<g id="edge19" class="edge">
<title>Pick&#45;&gt;Finish Pick</title>
<path fill="none" stroke="black" d="M670.46,-233.77C757.29,-234.93 1033.74,-228.45 1213.4,-108 1232.72,-95.04 1233.6,-86.98 1251.4,-72 1265.3,-60.3 1281.49,-48.11 1294.89,-38.38"/>
<polygon fill="black" stroke="black" points="1297.17,-41.05 1303.25,-32.37 1293.09,-35.36 1297.17,-41.05"/>
</g>
<!-- Object Detected? -->
<g id="node9" class="node">
<title>Object Detected?</title>
<ellipse fill="gray" stroke="blue" cx="429.4" cy="-18" rx="44.81" ry="18"/>
<text text-anchor="middle" x="429.4" y="-16.4" font-family="Times,serif" font-size="7.00" fill="blue">Object Detected?</text>
</g>
<!-- Move to Pick Position&#45;&gt;Object Detected? -->
<g id="edge8" class="edge">
<title>Move to Pick Position&#45;&gt;Object Detected?</title>
<path fill="none" stroke="black" d="M578.97,-156.15C541.13,-150.17 494.73,-136.97 463.4,-108 446,-91.92 437.42,-65.96 433.25,-46.22"/>
<polygon fill="black" stroke="black" points="436.67,-45.47 431.4,-36.28 429.78,-46.75 436.67,-45.47"/>
</g>
<!-- Robot Stationary? -->
<g id="node10" class="node">
<title>Robot Stationary?</title>
<ellipse fill="gray" stroke="blue" cx="537.4" cy="-18" rx="45.54" ry="18"/>
<text text-anchor="middle" x="537.4" y="-16.4" font-family="Times,serif" font-size="7.00" fill="blue">Robot Stationary?</text>
</g>
<!-- Move to Pick Position&#45;&gt;Robot Stationary? -->
<g id="edge9" class="edge">
<title>Move to Pick Position&#45;&gt;Robot Stationary?</title>
<path fill="none" stroke="black" d="M578.98,-158.82C541.69,-153.83 497.49,-140.75 473.4,-108 463.91,-95.11 466.59,-86.48 473.4,-72 479.72,-58.55 491.32,-47.35 502.92,-38.76"/>
<polygon fill="black" stroke="black" points="505.05,-41.53 511.29,-32.97 501.07,-35.77 505.05,-41.53"/>
</g>
<!-- Release Gripper -->
<g id="node11" class="node">
<title>Release Gripper</title>
<ellipse fill="gray" stroke="black" cx="535.4" cy="-90" rx="53.23" ry="18"/>
<text text-anchor="middle" x="535.4" y="-87.8" font-family="Times,serif" font-size="9.00">Release Gripper</text>
</g>
<!-- Move to Pick Position&#45;&gt;Release Gripper -->
<g id="edge10" class="edge">
<title>Move to Pick Position&#45;&gt;Release Gripper</title>
<path fill="none" stroke="black" d="M616.98,-143.88C602.01,-134.18 583.19,-121.97 567.39,-111.74"/>
<polygon fill="black" stroke="black" points="569.27,-108.78 558.97,-106.28 565.46,-114.66 569.27,-108.78"/>
</g>
<!-- Wait 1 sec -->
<g id="node12" class="node">
<title>Wait 1 sec</title>
<ellipse fill="gray" stroke="black" cx="643.4" cy="-90" rx="36.9" ry="18"/>
<text text-anchor="middle" x="643.4" y="-87.8" font-family="Times,serif" font-size="9.00">Wait 1 sec</text>
</g>
<!-- Move to Pick Position&#45;&gt;Wait 1 sec -->
<g id="edge11" class="edge">
<title>Move to Pick Position&#45;&gt;Wait 1 sec</title>
<path fill="none" stroke="black" d="M643.4,-143.7C643.4,-135.98 643.4,-126.71 643.4,-118.11"/>
<polygon fill="black" stroke="black" points="646.9,-118.1 643.4,-108.1 639.9,-118.1 646.9,-118.1"/>
</g>
<!-- Robot Stationary?* -->
<g id="node13" class="node">
<title>Robot Stationary?*</title>
<ellipse fill="gray" stroke="black" cx="758.4" cy="-90" rx="60.09" ry="18"/>
<text text-anchor="middle" x="758.4" y="-87.8" font-family="Times,serif" font-size="9.00">Robot Stationary?*</text>
</g>
<!-- Move to Pick Position&#45;&gt;Robot Stationary?* -->
<g id="edge12" class="edge">
<title>Move to Pick Position&#45;&gt;Robot Stationary?*</title>
<path fill="none" stroke="black" d="M671.53,-143.88C687.35,-134.25 707.23,-122.15 723.97,-111.95"/>
<polygon fill="black" stroke="black" points="726.19,-114.7 732.91,-106.51 722.55,-108.72 726.19,-114.7"/>
</g>
<!-- Send Pick Position -->
<g id="node14" class="node">
<title>Send Pick Position</title>
<ellipse fill="gray" stroke="blue" cx="846.4" cy="-18" rx="46.15" ry="18"/>
<text text-anchor="middle" x="846.4" y="-16.4" font-family="Times,serif" font-size="7.00" fill="blue">Send Pick Position</text>
</g>
<!-- Move to Pick Position&#45;&gt;Send Pick Position -->
<g id="edge13" class="edge">
<title>Move to Pick Position&#45;&gt;Send Pick Position</title>
<path fill="none" stroke="black" d="M707.79,-158.62C747.67,-153.67 796.91,-140.71 827.4,-108 842.76,-91.52 846.9,-65.79 847.56,-46.22"/>
<polygon fill="black" stroke="black" points="851.06,-46.1 847.61,-36.08 844.06,-46.06 851.06,-46.1"/>
</g>
<!-- Wait 1 sec* -->
<g id="node15" class="node">
<title>Wait 1 sec*</title>
<ellipse fill="gray" stroke="black" cx="913.4" cy="-90" rx="39.02" ry="18"/>
<text text-anchor="middle" x="913.4" y="-87.8" font-family="Times,serif" font-size="9.00">Wait 1 sec*</text>
</g>
<!-- Move to Pick Position&#45;&gt;Wait 1 sec* -->
<g id="edge14" class="edge">
<title>Move to Pick Position&#45;&gt;Wait 1 sec*</title>
<path fill="none" stroke="black" d="M707.8,-146.53C751.14,-136.49 809.45,-122.37 860.4,-108 864.48,-106.85 868.72,-105.59 872.94,-104.3"/>
<polygon fill="black" stroke="black" points="874.18,-107.58 882.68,-101.26 872.09,-100.9 874.18,-107.58"/>
</g>
<!-- Robot At Pick Position? -->
<g id="node17" class="node">
<title>Robot At Pick Position?</title>
<ellipse fill="gray" stroke="blue" cx="980.4" cy="-18" rx="56.25" ry="18"/>
<text text-anchor="middle" x="980.4" y="-16.4" font-family="Times,serif" font-size="7.00" fill="blue">Robot At Pick Position?</text>
</g>
<!-- Pick*&#45;&gt;Robot At Pick Position? -->
<g id="edge16" class="edge">
<title>Pick*&#45;&gt;Robot At Pick Position?</title>
<path fill="none" stroke="black" d="M1011.05,-143.97C1007.34,-133.66 1002.75,-120.18 999.4,-108 993.77,-87.57 988.82,-64.11 985.39,-46.4"/>
<polygon fill="black" stroke="black" points="988.75,-45.38 983.45,-36.21 981.88,-46.68 988.75,-45.38"/>
</g>
<!-- Close Gripper -->
<g id="node18" class="node">
<title>Close Gripper</title>
<ellipse fill="gray" stroke="black" cx="1055.4" cy="-90" rx="46.53" ry="18"/>
<text text-anchor="middle" x="1055.4" y="-87.8" font-family="Times,serif" font-size="9.00">Close Gripper</text>
</g>
<!-- Pick*&#45;&gt;Close Gripper -->
<g id="edge17" class="edge">
<title>Pick*&#45;&gt;Close Gripper</title>
<path fill="none" stroke="black" d="M1026.79,-143.7C1031.16,-135.64 1036.45,-125.89 1041.29,-116.98"/>
<polygon fill="black" stroke="black" points="1044.42,-118.56 1046.11,-108.1 1038.26,-115.22 1044.42,-118.56"/>
</g>
<!-- Wait 1 sec** -->
<g id="node19" class="node">
<title>Wait 1 sec**</title>
<ellipse fill="gray" stroke="black" cx="1162.4" cy="-90" rx="42.29" ry="18"/>
<text text-anchor="middle" x="1162.4" y="-87.8" font-family="Times,serif" font-size="9.00">Wait 1 sec**</text>
</g>
<!-- Pick*&#45;&gt;Wait 1 sec** -->
<g id="edge18" class="edge">
<title>Pick*&#45;&gt;Wait 1 sec**</title>
<path fill="none" stroke="black" d="M1044.67,-147.83C1067.66,-136.74 1100.74,-120.76 1125.99,-108.58"/>
<polygon fill="black" stroke="black" points="1127.76,-111.61 1135.25,-104.11 1124.72,-105.3 1127.76,-111.61"/>
</g>
<!-- Robot Stationary?** -->
<g id="node21" class="node">
<title>Robot Stationary?**</title>
<ellipse fill="gray" stroke="black" cx="1322.4" cy="-90" rx="62.21" ry="18"/>
<text text-anchor="middle" x="1322.4" y="-87.8" font-family="Times,serif" font-size="9.00">Robot Stationary?**</text>
</g>
<!-- Finish Pick&#45;&gt;Robot Stationary?** -->
<g id="edge20" class="edge">
<title>Finish Pick&#45;&gt;Robot Stationary?**</title>
<path fill="none" stroke="black" d="M1322.4,-36.1C1322.4,-43.79 1322.4,-53.05 1322.4,-61.67"/>
<polygon fill="black" stroke="black" points="1318.9,-61.7 1322.4,-71.7 1325.9,-61.7 1318.9,-61.7"/>
</g>
<!-- Finish Pick* -->
<g id="node22" class="node">
<title>Finish Pick*</title>
<ellipse fill="gray" stroke="black" cx="1444.4" cy="-90" rx="41.64" ry="18"/>
<text text-anchor="middle" x="1444.4" y="-87.8" font-family="Times,serif" font-size="9.00">Finish Pick*</text>
</g>
<!-- Finish Pick&#45;&gt;Finish Pick* -->
<g id="edge21" class="edge">
<title>Finish Pick&#45;&gt;Finish Pick*</title>
<path fill="none" stroke="black" d="M1344,-31.39C1362.71,-42.13 1390.08,-57.83 1411.51,-70.13"/>
<polygon fill="black" stroke="black" points="1409.88,-73.23 1420.29,-75.17 1413.36,-67.16 1409.88,-73.23"/>
</g>
<!-- /picking -->
<g id="node26" class="node">
<title>/picking</title>
<polygon fill="white" stroke="blue" points="1428.9,-26.5 1371.9,-26.5 1371.9,-9.5 1428.9,-9.5 1428.9,-26.5"/>
<text text-anchor="middle" x="1400.4" y="-16.1" font-family="Times,serif" font-size="8.00" fill="blue">/picking: &#45;</text>
</g>
<!-- Finish Pick&#45;&gt;/picking -->
<g id="edge37" class="edge">
<title>Finish Pick&#45;&gt;/picking</title>
<path fill="none" stroke="blue" d="M1353.78,-18C1356.38,-18 1358.98,-18 1361.59,-18"/>
<polygon fill="blue" stroke="blue" points="1361.62,-21.5 1371.62,-18 1361.62,-14.5 1361.62,-21.5"/>
</g>
<!-- /robot_gripper&#45;&gt;Robot Stationary? -->
<g id="edge23" class="edge">
<title>/robot_gripper&#45;&gt;Robot Stationary?</title>
<path fill="none" stroke="green" d="M1668.14,-26.62C1650.89,-33.13 1625.76,-41.51 1602.9,-45 1514.25,-58.51 885.44,-49.66 795.9,-45 724.71,-41.29 642.95,-31.88 590.77,-25.21"/>
<polygon fill="green" stroke="green" points="591.1,-21.73 580.74,-23.92 590.21,-28.67 591.1,-21.73"/>
</g>
<!-- /robot_gripper&#45;&gt;Robot Stationary? -->
<g id="edge24" class="edge">
<title>/robot_gripper&#45;&gt;Robot Stationary?</title>
<path fill="none" stroke="green" d="M1673.19,-26.59C1655.42,-35.48 1625.77,-48.78 1598.4,-54 1511.3,-70.6 888.86,-60.03 800.4,-54 726.69,-48.98 642.16,-36.13 589.27,-27.22"/>
<polygon fill="green" stroke="green" points="589.57,-23.73 579.12,-25.5 588.39,-30.63 589.57,-23.73"/>
</g>
<!-- /robot_gripper&#45;&gt;Robot Stationary? -->
<g id="edge25" class="edge">
<title>/robot_gripper&#45;&gt;Robot Stationary?</title>
<path fill="none" stroke="green" d="M1676.16,-26.56C1658.33,-37.54 1625.2,-55.99 1593.9,-63 1551.12,-72.57 848.58,-66.65 804.9,-63 728.4,-56.61 640.88,-40.12 587.37,-28.97"/>
<polygon fill="green" stroke="green" points="587.97,-25.52 577.47,-26.89 586.53,-32.37 587.97,-25.52"/>
</g>
<!-- /robot_gripper&#45;&gt;Robot At Pick Position? -->
<g id="edge22" class="edge">
<title>/robot_gripper&#45;&gt;Robot At Pick Position?</title>
<path fill="none" stroke="green" d="M1673.19,-26.59C1655.42,-35.48 1625.77,-48.78 1598.4,-54 1394.16,-92.93 1145.67,-52.46 1036.46,-30.37"/>
<polygon fill="green" stroke="green" points="1037.14,-26.93 1026.64,-28.35 1035.73,-33.79 1037.14,-26.93"/>
</g>
<!-- /detected_object&#45;&gt;Object Detected? -->
<g id="edge27" class="edge">
<title>/detected_object&#45;&gt;Object Detected?</title>
<path fill="none" stroke="green" d="M1505.81,-26.59C1487.62,-35.48 1457.31,-48.79 1429.4,-54 1326.95,-73.14 592.03,-81.1 491.4,-54 480.17,-50.98 468.88,-45.37 459.07,-39.46"/>
<polygon fill="green" stroke="green" points="460.84,-36.44 450.52,-34.02 457.08,-42.34 460.84,-36.44"/>
</g>
<!-- /detected_object&#45;&gt;Send Pick Position -->
<g id="edge28" class="edge">
<title>/detected_object&#45;&gt;Send Pick Position</title>
<path fill="none" stroke="green" d="M1505.81,-26.59C1487.62,-35.48 1457.31,-48.79 1429.4,-54 1319.08,-74.61 1034.01,-78.07 924.4,-54 909.51,-50.73 894.08,-44.33 880.91,-37.83"/>
<polygon fill="green" stroke="green" points="882.25,-34.58 871.76,-33.12 879.05,-40.81 882.25,-34.58"/>
</g>
<!-- /robot_status&#45;&gt;Robot Stationary? -->
<g id="edge31" class="edge">
<title>/robot_status&#45;&gt;Robot Stationary?</title>
<path fill="none" stroke="green" d="M1830.91,-26.62C1814.27,-33.13 1790.02,-41.51 1767.9,-45 1661.21,-61.82 903.75,-50.62 795.9,-45 724.71,-41.29 642.95,-31.88 590.77,-25.21"/>
<polygon fill="green" stroke="green" points="591.1,-21.73 580.74,-23.92 590.21,-28.67 591.1,-21.73"/>
</g>
<!-- /robot_status&#45;&gt;Robot Stationary? -->
<g id="edge32" class="edge">
<title>/robot_status&#45;&gt;Robot Stationary?</title>
<path fill="none" stroke="green" d="M1835.76,-26.58C1818.6,-35.47 1789.96,-48.78 1763.4,-54 1710.9,-64.32 853.77,-57.64 800.4,-54 726.69,-48.98 642.16,-36.13 589.27,-27.22"/>
<polygon fill="green" stroke="green" points="589.57,-23.73 579.12,-25.5 588.39,-30.63 589.57,-23.73"/>
</g>
<!-- /robot_status&#45;&gt;Robot Stationary? -->
<g id="edge33" class="edge">
<title>/robot_status&#45;&gt;Robot Stationary?</title>
<path fill="none" stroke="green" d="M1838.62,-26.56C1821.39,-37.53 1789.35,-55.99 1758.9,-63 1707.25,-74.9 857.71,-67.41 804.9,-63 728.4,-56.61 640.88,-40.12 587.37,-28.97"/>
<polygon fill="green" stroke="green" points="587.97,-25.52 577.47,-26.89 586.53,-32.37 587.97,-25.52"/>
</g>
<!-- /robot_status&#45;&gt;Robot At Pick Position? -->
<g id="edge30" class="edge">
<title>/robot_status&#45;&gt;Robot At Pick Position?</title>
<path fill="none" stroke="green" d="M1835.76,-26.58C1818.6,-35.47 1789.96,-48.78 1763.4,-54 1660.48,-74.24 1396.11,-60.04 1291.4,-54 1204.27,-48.97 1104.1,-36.09 1041.51,-27.18"/>
<polygon fill="green" stroke="green" points="1041.82,-23.69 1031.42,-25.74 1040.82,-30.62 1041.82,-23.69"/>
</g>
<!-- /picking&#45;&gt;Report Status -->
<g id="edge35" class="edge">
<title>/picking&#45;&gt;Report Status</title>
<path fill="none" stroke="green" d="M1392.73,-26.51C1384.16,-35.34 1369.36,-48.59 1353.4,-54 1287.05,-76.49 159.53,-74.02 92.4,-54 82.49,-51.05 72.72,-45.68 64.21,-39.97"/>
<polygon fill="green" stroke="green" points="66.03,-36.97 55.86,-33.99 61.95,-42.66 66.03,-36.97"/>
</g>
<!-- /picking&#45;&gt;Active? -->
<g id="edge36" class="edge">
<title>/picking&#45;&gt;Active?</title>
<path fill="none" stroke="green" d="M1392.73,-26.51C1384.16,-35.34 1369.36,-48.59 1353.4,-54 1302.41,-71.28 435.2,-71.82 384.4,-54 376.17,-51.11 368.32,-46.02 361.56,-40.55"/>
<polygon fill="green" stroke="green" points="363.43,-37.54 353.61,-33.57 358.81,-42.8 363.43,-37.54"/>
</g>
<!-- /robot_pose&#45;&gt;Robot Stationary? -->
<g id="edge39" class="edge">
<title>/robot_pose&#45;&gt;Robot Stationary?</title>
<path fill="none" stroke="green" d="M1984.44,-26.62C1969.04,-33.12 1946.55,-41.51 1925.9,-45 1864,-55.47 858.59,-48.27 795.9,-45 724.71,-41.29 642.95,-31.88 590.77,-25.21"/>
<polygon fill="green" stroke="green" points="591.1,-21.73 580.74,-23.92 590.21,-28.67 591.1,-21.73"/>
</g>
<!-- /robot_pose&#45;&gt;Robot Stationary? -->
<g id="edge40" class="edge">
<title>/robot_pose&#45;&gt;Robot Stationary?</title>
<path fill="none" stroke="green" d="M1988.91,-26.58C1972.99,-35.46 1946.35,-48.76 1921.4,-54 1860.45,-66.79 862.53,-58.23 800.4,-54 726.69,-48.98 642.16,-36.13 589.27,-27.22"/>
<polygon fill="green" stroke="green" points="589.57,-23.73 579.12,-25.5 588.39,-30.63 589.57,-23.73"/>
</g>
<!-- /robot_pose&#45;&gt;Robot Stationary? -->
<g id="edge41" class="edge">
<title>/robot_pose&#45;&gt;Robot Stationary?</title>
<path fill="none" stroke="green" d="M1991.54,-26.55C1975.53,-37.52 1945.67,-55.96 1916.9,-63 1856.89,-77.68 866.46,-68.14 804.9,-63 728.4,-56.61 640.88,-40.12 587.37,-28.97"/>
<polygon fill="green" stroke="green" points="587.97,-25.52 577.47,-26.89 586.53,-32.37 587.97,-25.52"/>
</g>
<!-- /robot_pose&#45;&gt;Robot At Pick Position? -->
<g id="edge38" class="edge">
<title>/robot_pose&#45;&gt;Robot At Pick Position?</title>
<path fill="none" stroke="green" d="M1988.91,-26.58C1972.99,-35.46 1946.35,-48.76 1921.4,-54 1784.38,-82.75 1431.16,-62.06 1291.4,-54 1204.27,-48.97 1104.1,-36.09 1041.51,-27.18"/>
<polygon fill="green" stroke="green" points="1041.82,-23.69 1031.42,-25.74 1040.82,-30.62 1041.82,-23.69"/>
</g>
</g>
</svg>
