<?xml version="1.0" encoding="UTF-8" standalone="no"?>
<!DOCTYPE svg PUBLIC "-//W3C//DTD SVG 1.1//EN"
 "http://www.w3.org/Graphics/SVG/1.1/DTD/svg11.dtd">
<!-- Generated by graphviz version 2.43.0 (0)
 -->
<!-- Title: pastafarianism Pages: 1 -->
<svg width="1402pt" height="280pt"
 viewBox="0.00 0.00 1401.64 280.00" xmlns="http://www.w3.org/2000/svg" xmlns:xlink="http://www.w3.org/1999/xlink">
<g id="graph0" class="graph" transform="scale(1 1) rotate(0) translate(4 276)">
<title>pastafarianism</title>
<polygon fill="white" stroke="transparent" points="-4,4 -4,-276 1397.64,-276 1397.64,4 -4,4"/>
<!-- System Skill Place -->
<g id="node1" class="node">
<title>System Skill Place</title>
<polygon fill="gold" stroke="black" points="358.11,-272 191.2,-272 148.26,-216 315.17,-216 358.11,-272"/>
<text text-anchor="middle" x="253.19" y="-246.8" font-family="Times,serif" font-size="9.00">System Skill Place</text>
<text text-anchor="middle" x="253.19" y="-236.8" font-family="Times,serif" font-size="9.00">SuccessOnAll</text>
</g>
<!-- System State -->
<g id="node2" class="node">
<title>System State</title>
<polygon fill="orange" stroke="black" points="198.69,-180 109.69,-180 109.69,-144 198.69,-144 198.69,-180"/>
<text text-anchor="middle" x="154.19" y="-159.8" font-family="Times,serif" font-size="9.00">Ⓜ System State</text>
</g>
<!-- System Skill Place&#45;&gt;System State -->
<g id="edge1" class="edge">
<title>System Skill Place&#45;&gt;System State</title>
<path fill="none" stroke="black" d="M219.67,-215.92C207.84,-206.36 194.65,-195.7 183.23,-186.47"/>
<polygon fill="black" stroke="black" points="185.24,-183.6 175.27,-180.03 180.84,-189.04 185.24,-183.6"/>
</g>
<!-- Place -->
<g id="node5" class="node">
<title>Place</title>
<polygon fill="orange" stroke="black" points="379.19,-180 325.19,-180 325.19,-144 379.19,-144 379.19,-180"/>
<text text-anchor="middle" x="352.19" y="-159.8" font-family="Times,serif" font-size="9.00">Ⓜ Place</text>
</g>
<!-- System Skill Place&#45;&gt;Place -->
<g id="edge4" class="edge">
<title>System Skill Place&#45;&gt;Place</title>
<path fill="none" stroke="black" d="M286.7,-215.92C298.53,-206.36 311.72,-195.7 323.15,-186.47"/>
<polygon fill="black" stroke="black" points="325.53,-189.04 331.11,-180.03 321.13,-183.6 325.53,-189.04"/>
</g>
<!-- Report Status -->
<g id="node3" class="node">
<title>Report Status</title>
<ellipse fill="gray" stroke="black" cx="46.19" cy="-90" rx="46.38" ry="18"/>
<text text-anchor="middle" x="46.19" y="-87.8" font-family="Times,serif" font-size="9.00">Report Status</text>
</g>
<!-- System State&#45;&gt;Report Status -->
<g id="edge2" class="edge">
<title>System State&#45;&gt;Report Status</title>
<path fill="none" stroke="black" d="M127.77,-143.88C112.59,-134.04 93.45,-121.63 77.52,-111.31"/>
<polygon fill="black" stroke="black" points="79.34,-108.32 69.04,-105.81 75.53,-114.19 79.34,-108.32"/>
</g>
<!-- Robot Status -->
<g id="node4" class="node">
<title>Robot Status</title>
<ellipse fill="gray" stroke="black" cx="154.19" cy="-90" rx="43.76" ry="18"/>
<text text-anchor="middle" x="154.19" y="-87.8" font-family="Times,serif" font-size="9.00">Robot Status</text>
</g>
<!-- System State&#45;&gt;Robot Status -->
<g id="edge3" class="edge">
<title>System State&#45;&gt;Robot Status</title>
<path fill="none" stroke="black" d="M154.19,-143.7C154.19,-135.98 154.19,-126.71 154.19,-118.11"/>
<polygon fill="black" stroke="black" points="157.69,-118.1 154.19,-108.1 150.69,-118.1 157.69,-118.1"/>
</g>
<!-- Active? -->
<g id="node6" class="node">
<title>Active?</title>
<ellipse fill="gray" stroke="black" cx="245.19" cy="-90" rx="28.74" ry="18"/>
<text text-anchor="middle" x="245.19" y="-87.8" font-family="Times,serif" font-size="9.00">Active?</text>
</g>
<!-- Place&#45;&gt;Active? -->
<g id="edge5" class="edge">
<title>Place&#45;&gt;Active?</title>
<path fill="none" stroke="black" d="M326.01,-143.88C309.93,-133.36 289.36,-119.89 272.99,-109.19"/>
<polygon fill="black" stroke="black" points="274.67,-106.1 264.38,-103.56 270.83,-111.96 274.67,-106.1"/>
</g>
<!-- Go to Place Position -->
<g id="node7" class="node">
<title>Go to Place Position</title>
<polygon fill="orange" stroke="black" points="412.69,-108 291.69,-108 291.69,-72 412.69,-72 412.69,-108"/>
<text text-anchor="middle" x="352.19" y="-87.8" font-family="Times,serif" font-size="9.00">Ⓜ Go to Place Position</text>
</g>
<!-- Place&#45;&gt;Go to Place Position -->
<g id="edge6" class="edge">
<title>Place&#45;&gt;Go to Place Position</title>
<path fill="none" stroke="black" d="M352.19,-143.7C352.19,-135.98 352.19,-126.71 352.19,-118.11"/>
<polygon fill="black" stroke="black" points="355.69,-118.1 352.19,-108.1 348.69,-118.1 355.69,-118.1"/>
</g>
<!-- Execute Place -->
<g id="node11" class="node">
<title>Execute Place</title>
<polygon fill="orange" stroke="black" points="670.19,-108 576.19,-108 576.19,-72 670.19,-72 670.19,-108"/>
<text text-anchor="middle" x="623.19" y="-87.8" font-family="Times,serif" font-size="9.00">Ⓜ Execute Place</text>
</g>
<!-- Place&#45;&gt;Execute Place -->
<g id="edge10" class="edge">
<title>Place&#45;&gt;Execute Place</title>
<path fill="none" stroke="black" d="M379.41,-153.97C422.84,-142.75 508.74,-120.56 566.09,-105.75"/>
<polygon fill="black" stroke="black" points="567.28,-109.06 576.09,-103.17 565.53,-102.28 567.28,-109.06"/>
</g>
<!-- Finish Place -->
<g id="node16" class="node">
<title>Finish Place</title>
<polygon fill="orange" stroke="black" points="1143.69,-108 1058.69,-108 1058.69,-72 1143.69,-72 1143.69,-108"/>
<text text-anchor="middle" x="1101.19" y="-87.8" font-family="Times,serif" font-size="9.00">Ⓜ Finish Place</text>
</g>
<!-- Place&#45;&gt;Finish Place -->
<g id="edge15" class="edge">
<title>Place&#45;&gt;Finish Place</title>
<path fill="none" stroke="black" d="M379.29,-158.47C488.91,-148.22 900.64,-109.74 1048.18,-95.95"/>
<polygon fill="black" stroke="black" points="1048.7,-99.42 1058.33,-95 1048.05,-92.45 1048.7,-99.42"/>
</g>
<!-- Robot Stationary? -->
<g id="node8" class="node">
<title>Robot Stationary?</title>
<ellipse fill="gray" stroke="black" cx="98.19" cy="-18" rx="57.32" ry="18"/>
<text text-anchor="middle" x="98.19" y="-15.8" font-family="Times,serif" font-size="9.00">Robot Stationary?</text>
</g>
<!-- Go to Place Position&#45;&gt;Robot Stationary? -->
<g id="edge7" class="edge">
<title>Go to Place Position&#45;&gt;Robot Stationary?</title>
<path fill="none" stroke="black" d="M291.67,-72.32C248.29,-60.37 190.5,-44.44 149.41,-33.12"/>
<polygon fill="black" stroke="black" points="150.17,-29.69 139.6,-30.41 148.31,-36.44 150.17,-29.69"/>
</g>
<!-- Send Place Position -->
<g id="node9" class="node">
<title>Send Place Position</title>
<ellipse fill="gray" stroke="black" cx="235.19" cy="-18" rx="61.55" ry="18"/>
<text text-anchor="middle" x="235.19" y="-15.8" font-family="Times,serif" font-size="9.00">Send Place Position</text>
</g>
<!-- Go to Place Position&#45;&gt;Send Place Position -->
<g id="edge8" class="edge">
<title>Go to Place Position&#45;&gt;Send Place Position</title>
<path fill="none" stroke="black" d="M323.57,-71.88C307.32,-62.16 286.87,-49.92 269.74,-39.67"/>
<polygon fill="black" stroke="black" points="271.5,-36.64 261.12,-34.51 267.9,-42.65 271.5,-36.64"/>
</g>
<!-- Wait 1 sec -->
<g id="node10" class="node">
<title>Wait 1 sec</title>
<ellipse fill="gray" stroke="black" cx="352.19" cy="-18" rx="36.9" ry="18"/>
<text text-anchor="middle" x="352.19" y="-15.8" font-family="Times,serif" font-size="9.00">Wait 1 sec</text>
</g>
<!-- Go to Place Position&#45;&gt;Wait 1 sec -->
<g id="edge9" class="edge">
<title>Go to Place Position&#45;&gt;Wait 1 sec</title>
<path fill="none" stroke="black" d="M352.19,-71.7C352.19,-63.98 352.19,-54.71 352.19,-46.11"/>
<polygon fill="black" stroke="black" points="355.69,-46.1 352.19,-36.1 348.69,-46.1 355.69,-46.1"/>
</g>
<!-- Robot at Place Position? -->
<g id="node12" class="node">
<title>Robot at Place Position?</title>
<ellipse fill="gray" stroke="black" cx="481.19" cy="-18" rx="73.8" ry="18"/>
<text text-anchor="middle" x="481.19" y="-15.8" font-family="Times,serif" font-size="9.00">Robot at Place Position?</text>
</g>
<!-- Execute Place&#45;&gt;Robot at Place Position? -->
<g id="edge11" class="edge">
<title>Execute Place&#45;&gt;Robot at Place Position?</title>
<path fill="none" stroke="black" d="M588.45,-71.88C568.28,-61.93 542.77,-49.36 521.7,-38.97"/>
<polygon fill="black" stroke="black" points="523.18,-35.8 512.66,-34.51 520.08,-42.08 523.18,-35.8"/>
</g>
<!-- Release Object -->
<g id="node13" class="node">
<title>Release Object</title>
<ellipse fill="gray" stroke="black" cx="623.19" cy="-18" rx="49.8" ry="18"/>
<text text-anchor="middle" x="623.19" y="-15.8" font-family="Times,serif" font-size="9.00">Release Object</text>
</g>
<!-- Execute Place&#45;&gt;Release Object -->
<g id="edge12" class="edge">
<title>Execute Place&#45;&gt;Release Object</title>
<path fill="none" stroke="black" d="M623.19,-71.7C623.19,-63.98 623.19,-54.71 623.19,-46.11"/>
<polygon fill="black" stroke="black" points="626.69,-46.1 623.19,-36.1 619.69,-46.1 626.69,-46.1"/>
</g>
<!-- Wait 1 sec* -->
<g id="node14" class="node">
<title>Wait 1 sec*</title>
<ellipse fill="gray" stroke="black" cx="730.19" cy="-18" rx="39.02" ry="18"/>
<text text-anchor="middle" x="730.19" y="-15.8" font-family="Times,serif" font-size="9.00">Wait 1 sec*</text>
</g>
<!-- Execute Place&#45;&gt;Wait 1 sec* -->
<g id="edge13" class="edge">
<title>Execute Place&#45;&gt;Wait 1 sec*</title>
<path fill="none" stroke="black" d="M649.36,-71.88C664.71,-61.84 684.16,-49.11 700.13,-38.66"/>
<polygon fill="black" stroke="black" points="702.15,-41.53 708.6,-33.12 698.32,-35.67 702.15,-41.53"/>
</g>
<!-- Robot Stationary?* -->
<g id="node15" class="node">
<title>Robot Stationary?*</title>
<ellipse fill="gray" stroke="black" cx="847.19" cy="-18" rx="60.09" ry="18"/>
<text text-anchor="middle" x="847.19" y="-15.8" font-family="Times,serif" font-size="9.00">Robot Stationary?*</text>
</g>
<!-- Execute Place&#45;&gt;Robot Stationary?* -->
<g id="edge14" class="edge">
<title>Execute Place&#45;&gt;Robot Stationary?*</title>
<path fill="none" stroke="black" d="M670.42,-74.24C707.65,-62.6 759.44,-46.42 797.33,-34.58"/>
<polygon fill="black" stroke="black" points="798.64,-37.84 807.14,-31.52 796.55,-31.16 798.64,-37.84"/>
</g>
<!-- Set Home Position -->
<g id="node17" class="node">
<title>Set Home Position</title>
<ellipse fill="gray" stroke="black" cx="983.19" cy="-18" rx="58.13" ry="18"/>
<text text-anchor="middle" x="983.19" y="-15.8" font-family="Times,serif" font-size="9.00">Set Home Position</text>
</g>
<!-- Finish Place&#45;&gt;Set Home Position -->
<g id="edge16" class="edge">
<title>Finish Place&#45;&gt;Set Home Position</title>
<path fill="none" stroke="black" d="M1072.32,-71.88C1055.82,-62.09 1035.02,-49.75 1017.67,-39.45"/>
<polygon fill="black" stroke="black" points="1019.33,-36.37 1008.94,-34.28 1015.76,-42.39 1019.33,-36.37"/>
</g>
<!-- Wait 1 sec** -->
<g id="node18" class="node">
<title>Wait 1 sec**</title>
<ellipse fill="gray" stroke="black" cx="1101.19" cy="-18" rx="42.29" ry="18"/>
<text text-anchor="middle" x="1101.19" y="-15.8" font-family="Times,serif" font-size="9.00">Wait 1 sec**</text>
</g>
<!-- Finish Place&#45;&gt;Wait 1 sec** -->
<g id="edge17" class="edge">
<title>Finish Place&#45;&gt;Wait 1 sec**</title>
<path fill="none" stroke="black" d="M1101.19,-71.7C1101.19,-63.98 1101.19,-54.71 1101.19,-46.11"/>
<polygon fill="black" stroke="black" points="1104.69,-46.1 1101.19,-36.1 1097.69,-46.1 1104.69,-46.1"/>
</g>
<!-- Robot Stationary?** -->
<g id="node19" class="node">
<title>Robot Stationary?**</title>
<ellipse fill="gray" stroke="black" cx="1224.19" cy="-18" rx="62.21" ry="18"/>
<text text-anchor="middle" x="1224.19" y="-15.8" font-family="Times,serif" font-size="9.00">Robot Stationary?**</text>
</g>
<!-- Finish Place&#45;&gt;Robot Stationary?** -->
<g id="edge18" class="edge">
<title>Finish Place&#45;&gt;Robot Stationary?**</title>
<path fill="none" stroke="black" d="M1131.28,-71.88C1148.48,-62.09 1170.16,-49.75 1188.25,-39.45"/>
<polygon fill="black" stroke="black" points="1190.38,-42.27 1197.34,-34.28 1186.92,-36.18 1190.38,-42.27"/>
</g>
<!-- Finish Place* -->
<g id="node20" class="node">
<title>Finish Place*</title>
<ellipse fill="gray" stroke="black" cx="1349.19" cy="-18" rx="44.41" ry="18"/>
<text text-anchor="middle" x="1349.19" y="-15.8" font-family="Times,serif" font-size="9.00">Finish Place*</text>
</g>
<!-- Finish Place&#45;&gt;Finish Place* -->
<g id="edge19" class="edge">
<title>Finish Place&#45;&gt;Finish Place*</title>
<path fill="none" stroke="black" d="M1143.71,-77.89C1183.1,-67.47 1243.27,-51.26 1295.19,-36 1298.69,-34.97 1302.32,-33.88 1305.96,-32.77"/>
<polygon fill="black" stroke="black" points="1307.02,-36.1 1315.55,-29.81 1304.96,-29.42 1307.02,-36.1"/>
</g>
</g>
</svg>
