<?xml version="1.0" encoding="UTF-8" standalone="no"?>
<!DOCTYPE svg PUBLIC "-//W3C//DTD SVG 1.1//EN"
 "http://www.w3.org/Graphics/SVG/1.1/DTD/svg11.dtd">
<!-- Generated by graphviz version 2.43.0 (0)
 -->
<!-- Title: pastafarianism Pages: 1 -->
<svg width="1700pt" height="352pt"
 viewBox="0.00 0.00 1700.40 352.00" xmlns="http://www.w3.org/2000/svg" xmlns:xlink="http://www.w3.org/1999/xlink">
<g id="graph0" class="graph" transform="scale(1 1) rotate(0) translate(4 348)">
<title>pastafarianism</title>
<polygon fill="white" stroke="transparent" points="-4,4 -4,-348 1696.4,-348 1696.4,4 -4,4"/>
<!-- System Skill Place -->
<g id="node1" class="node">
<title>System Skill Place</title>
<polygon fill="gold" stroke="black" points="338.32,-344 171.41,-344 128.47,-288 295.38,-288 338.32,-344"/>
<text text-anchor="middle" x="233.4" y="-318.8" font-family="Times,serif" font-size="9.00">System Skill Place</text>
<text text-anchor="middle" x="233.4" y="-308.8" font-family="Times,serif" font-size="9.00">SuccessOnAll</text>
</g>
<!-- System State -->
<g id="node2" class="node">
<title>System State</title>
<polygon fill="orange" stroke="black" points="172.9,-108 83.9,-108 83.9,-72 172.9,-72 172.9,-108"/>
<text text-anchor="middle" x="128.4" y="-87.8" font-family="Times,serif" font-size="9.00">Ⓜ System State</text>
</g>
<!-- System Skill Place&#45;&gt;System State -->
<g id="edge1" class="edge">
<title>System Skill Place&#45;&gt;System State</title>
<path fill="none" stroke="black" d="M220.73,-287.98C200.44,-244.69 160.89,-160.31 140.78,-117.41"/>
<polygon fill="black" stroke="black" points="143.86,-115.75 136.45,-108.18 137.53,-118.72 143.86,-115.75"/>
</g>
<!-- Place -->
<g id="node5" class="node">
<title>Place</title>
<polygon fill="orange" stroke="black" points="364.4,-252 310.4,-252 310.4,-216 364.4,-216 364.4,-252"/>
<text text-anchor="middle" x="337.4" y="-231.8" font-family="Times,serif" font-size="9.00">Ⓜ Place</text>
</g>
<!-- System Skill Place&#45;&gt;Place -->
<g id="edge4" class="edge">
<title>System Skill Place&#45;&gt;Place</title>
<path fill="none" stroke="black" d="M268.61,-287.92C281.15,-278.27 295.16,-267.49 307.24,-258.2"/>
<polygon fill="black" stroke="black" points="309.46,-260.9 315.25,-252.03 305.19,-255.36 309.46,-260.9"/>
</g>
<!-- Report Status -->
<g id="node3" class="node">
<title>Report Status</title>
<ellipse fill="gray" stroke="blue" cx="37.4" cy="-18" rx="37.29" ry="18"/>
<text text-anchor="middle" x="37.4" y="-16.4" font-family="Times,serif" font-size="7.00" fill="blue">Report Status</text>
</g>
<!-- System State&#45;&gt;Report Status -->
<g id="edge2" class="edge">
<title>System State&#45;&gt;Report Status</title>
<path fill="none" stroke="black" d="M105.9,-71.7C93.47,-62.13 77.92,-50.17 64.79,-40.07"/>
<polygon fill="black" stroke="black" points="66.62,-37.06 56.56,-33.74 62.35,-42.61 66.62,-37.06"/>
</g>
<!-- Robot Status -->
<g id="node4" class="node">
<title>Robot Status</title>
<ellipse fill="gray" stroke="blue" cx="128.4" cy="-18" rx="35.95" ry="18"/>
<text text-anchor="middle" x="128.4" y="-16.4" font-family="Times,serif" font-size="7.00" fill="blue">Robot Status</text>
</g>
<!-- System State&#45;&gt;Robot Status -->
<g id="edge3" class="edge">
<title>System State&#45;&gt;Robot Status</title>
<path fill="none" stroke="black" d="M128.4,-71.7C128.4,-63.98 128.4,-54.71 128.4,-46.11"/>
<polygon fill="black" stroke="black" points="131.9,-46.1 128.4,-36.1 124.9,-46.1 131.9,-46.1"/>
</g>
<!-- /robot_pose -->
<g id="node21" class="node">
<title>/robot_pose</title>
<polygon fill="white" stroke="blue" points="1368.4,-26.5 1240.4,-26.5 1240.4,-9.5 1368.4,-9.5 1368.4,-26.5"/>
<text text-anchor="middle" x="1304.4" y="-16.1" font-family="Times,serif" font-size="8.00" fill="blue">/robot_pose: {&#39;x&#39;: 0, &#39;y&#39;: 0, ...</text>
</g>
<!-- Robot Status&#45;&gt;/robot_pose -->
<g id="edge24" class="edge">
<title>Robot Status&#45;&gt;/robot_pose</title>
<path fill="none" stroke="blue" d="M146.48,-33.99C156.36,-41.65 169.24,-50.02 182.4,-54 237.7,-70.74 1165.85,-65.87 1222.4,-54 1243.06,-49.66 1264.88,-39.8 1280.81,-31.49"/>
<polygon fill="blue" stroke="blue" points="1282.77,-34.41 1289.91,-26.58 1279.44,-28.25 1282.77,-34.41"/>
</g>
<!-- /robot_gripper -->
<g id="node22" class="node">
<title>/robot_gripper</title>
<polygon fill="white" stroke="blue" points="1533.9,-26.5 1386.9,-26.5 1386.9,-9.5 1533.9,-9.5 1533.9,-26.5"/>
<text text-anchor="middle" x="1460.4" y="-16.1" font-family="Times,serif" font-size="8.00" fill="blue">/robot_gripper: {&#39;rotation&#39;: 0.0,...</text>
</g>
<!-- Robot Status&#45;&gt;/robot_gripper -->
<g id="edge29" class="edge">
<title>Robot Status&#45;&gt;/robot_gripper</title>
<path fill="none" stroke="blue" d="M146.48,-33.99C156.36,-41.65 169.24,-50.02 182.4,-54 245.46,-73.09 1303.65,-66.22 1368.4,-54 1391.72,-49.6 1416.71,-39.44 1434.75,-31.03"/>
<polygon fill="blue" stroke="blue" points="1436.5,-34.07 1444,-26.59 1433.47,-27.76 1436.5,-34.07"/>
</g>
<!-- /robot_status -->
<g id="node23" class="node">
<title>/robot_status</title>
<polygon fill="white" stroke="blue" points="1692.4,-26.5 1552.4,-26.5 1552.4,-9.5 1692.4,-9.5 1692.4,-26.5"/>
<text text-anchor="middle" x="1622.4" y="-16.1" font-family="Times,serif" font-size="8.00" fill="blue">/robot_status: {&#39;status&#39;: &#39;busy&#39;}</text>
</g>
<!-- Robot Status&#45;&gt;/robot_status -->
<g id="edge34" class="edge">
<title>Robot Status&#45;&gt;/robot_status</title>
<path fill="none" stroke="blue" d="M146.48,-33.99C156.36,-41.65 169.24,-50.02 182.4,-54 254.28,-75.77 1460.7,-68.49 1534.4,-54 1556.6,-49.63 1580.26,-39.62 1597.45,-31.26"/>
<polygon fill="blue" stroke="blue" points="1599.4,-34.2 1606.76,-26.58 1596.25,-27.94 1599.4,-34.2"/>
</g>
<!-- Active? -->
<g id="node6" class="node">
<title>Active?</title>
<ellipse fill="gray" stroke="blue" cx="209.4" cy="-18" rx="27" ry="18"/>
<text text-anchor="middle" x="209.4" y="-16.4" font-family="Times,serif" font-size="7.00" fill="blue">Active?</text>
</g>
<!-- Place&#45;&gt;Active? -->
<g id="edge5" class="edge">
<title>Place&#45;&gt;Active?</title>
<path fill="none" stroke="black" d="M310.38,-217.85C295.91,-208.55 278.78,-195.47 267.4,-180 237.05,-138.75 221.28,-80.07 214.21,-46.13"/>
<polygon fill="black" stroke="black" points="217.59,-45.16 212.21,-36.03 210.72,-46.52 217.59,-45.16"/>
</g>
<!-- Go to Place Position -->
<g id="node7" class="node">
<title>Go to Place Position</title>
<polygon fill="orange" stroke="black" points="397.9,-180 276.9,-180 276.9,-144 397.9,-144 397.9,-180"/>
<text text-anchor="middle" x="337.4" y="-159.8" font-family="Times,serif" font-size="9.00">Ⓜ Go to Place Position</text>
</g>
<!-- Place&#45;&gt;Go to Place Position -->
<g id="edge6" class="edge">
<title>Place&#45;&gt;Go to Place Position</title>
<path fill="none" stroke="black" d="M337.4,-215.7C337.4,-207.98 337.4,-198.71 337.4,-190.11"/>
<polygon fill="black" stroke="black" points="340.9,-190.1 337.4,-180.1 333.9,-190.1 340.9,-190.1"/>
</g>
<!-- Execute Place -->
<g id="node11" class="node">
<title>Execute Place</title>
<polygon fill="orange" stroke="black" points="644.4,-180 550.4,-180 550.4,-144 644.4,-144 644.4,-180"/>
<text text-anchor="middle" x="597.4" y="-159.8" font-family="Times,serif" font-size="9.00">Ⓜ Execute Place</text>
</g>
<!-- Place&#45;&gt;Execute Place -->
<g id="edge10" class="edge">
<title>Place&#45;&gt;Execute Place</title>
<path fill="none" stroke="black" d="M364.73,-225.64C406.22,-214.47 486,-192.99 540.46,-178.33"/>
<polygon fill="black" stroke="black" points="541.57,-181.66 550.31,-175.68 539.75,-174.9 541.57,-181.66"/>
</g>
<!-- Finish Place -->
<g id="node16" class="node">
<title>Finish Place</title>
<ellipse fill="gray" stroke="blue" cx="1113.4" cy="-18" rx="33.48" ry="18"/>
<text text-anchor="middle" x="1113.4" y="-16.4" font-family="Times,serif" font-size="7.00" fill="blue">Finish Place</text>
</g>
<!-- Place&#45;&gt;Finish Place -->
<g id="edge15" class="edge">
<title>Place&#45;&gt;Finish Place</title>
<path fill="none" stroke="black" d="M364.68,-229.63C419.72,-222.56 547.79,-204.79 653.4,-180 760.57,-154.84 795.23,-163.33 890.4,-108 910.51,-96.31 908.19,-83.53 928.4,-72 973.54,-46.23 1032.15,-32.21 1071.18,-25.17"/>
<polygon fill="black" stroke="black" points="1071.89,-28.6 1081.15,-23.45 1070.7,-21.7 1071.89,-28.6"/>
</g>
<!-- Robot Stationary? -->
<g id="node8" class="node">
<title>Robot Stationary?</title>
<ellipse fill="gray" stroke="blue" cx="300.4" cy="-18" rx="45.54" ry="18"/>
<text text-anchor="middle" x="300.4" y="-16.4" font-family="Times,serif" font-size="7.00" fill="blue">Robot Stationary?</text>
</g>
<!-- Go to Place Position&#45;&gt;Robot Stationary? -->
<g id="edge7" class="edge">
<title>Go to Place Position&#45;&gt;Robot Stationary?</title>
<path fill="none" stroke="black" d="M302.23,-143.94C288.41,-135.25 274.05,-123.26 266.4,-108 255.82,-86.91 267.59,-61.69 280.08,-43.49"/>
<polygon fill="black" stroke="black" points="283.09,-45.3 286.18,-35.16 277.45,-41.16 283.09,-45.3"/>
</g>
<!-- Send Place Position -->
<g id="node9" class="node">
<title>Send Place Position</title>
<ellipse fill="gray" stroke="black" cx="337.4" cy="-90" rx="61.55" ry="18"/>
<text text-anchor="middle" x="337.4" y="-87.8" font-family="Times,serif" font-size="9.00">Send Place Position</text>
</g>
<!-- Go to Place Position&#45;&gt;Send Place Position -->
<g id="edge8" class="edge">
<title>Go to Place Position&#45;&gt;Send Place Position</title>
<path fill="none" stroke="black" d="M337.4,-143.7C337.4,-135.98 337.4,-126.71 337.4,-118.11"/>
<polygon fill="black" stroke="black" points="340.9,-118.1 337.4,-108.1 333.9,-118.1 340.9,-118.1"/>
</g>
<!-- Wait 1 sec -->
<g id="node10" class="node">
<title>Wait 1 sec</title>
<ellipse fill="gray" stroke="black" cx="454.4" cy="-90" rx="36.9" ry="18"/>
<text text-anchor="middle" x="454.4" y="-87.8" font-family="Times,serif" font-size="9.00">Wait 1 sec</text>
</g>
<!-- Go to Place Position&#45;&gt;Wait 1 sec -->
<g id="edge9" class="edge">
<title>Go to Place Position&#45;&gt;Wait 1 sec</title>
<path fill="none" stroke="black" d="M366.02,-143.88C383.3,-133.54 405.34,-120.35 423.09,-109.73"/>
<polygon fill="black" stroke="black" points="425.14,-112.58 431.93,-104.44 421.55,-106.57 425.14,-112.58"/>
</g>
<!-- Robot at Place Position? -->
<g id="node12" class="node">
<title>Robot at Place Position?</title>
<ellipse fill="gray" stroke="blue" cx="519.4" cy="-18" rx="58.71" ry="18"/>
<text text-anchor="middle" x="519.4" y="-16.4" font-family="Times,serif" font-size="7.00" fill="blue">Robot at Place Position?</text>
</g>
<!-- Execute Place&#45;&gt;Robot at Place Position? -->
<g id="edge11" class="edge">
<title>Execute Place&#45;&gt;Robot at Place Position?</title>
<path fill="none" stroke="black" d="M571.84,-143.89C559.93,-134.63 546.6,-122.18 538.4,-108 527.48,-89.14 522.81,-64.77 520.83,-46.3"/>
<polygon fill="black" stroke="black" points="524.3,-45.85 519.94,-36.19 517.33,-46.46 524.3,-45.85"/>
</g>
<!-- Release Object -->
<g id="node13" class="node">
<title>Release Object</title>
<ellipse fill="gray" stroke="black" cx="597.4" cy="-90" rx="49.8" ry="18"/>
<text text-anchor="middle" x="597.4" y="-87.8" font-family="Times,serif" font-size="9.00">Release Object</text>
</g>
<!-- Execute Place&#45;&gt;Release Object -->
<g id="edge12" class="edge">
<title>Execute Place&#45;&gt;Release Object</title>
<path fill="none" stroke="black" d="M597.4,-143.7C597.4,-135.98 597.4,-126.71 597.4,-118.11"/>
<polygon fill="black" stroke="black" points="600.9,-118.1 597.4,-108.1 593.9,-118.1 600.9,-118.1"/>
</g>
<!-- Wait 1 sec* -->
<g id="node14" class="node">
<title>Wait 1 sec*</title>
<ellipse fill="gray" stroke="black" cx="704.4" cy="-90" rx="39.02" ry="18"/>
<text text-anchor="middle" x="704.4" y="-87.8" font-family="Times,serif" font-size="9.00">Wait 1 sec*</text>
</g>
<!-- Execute Place&#45;&gt;Wait 1 sec* -->
<g id="edge13" class="edge">
<title>Execute Place&#45;&gt;Wait 1 sec*</title>
<path fill="none" stroke="black" d="M623.57,-143.88C638.92,-133.84 658.37,-121.11 674.34,-110.66"/>
<polygon fill="black" stroke="black" points="676.36,-113.53 682.81,-105.12 672.52,-107.67 676.36,-113.53"/>
</g>
<!-- Robot Stationary?* -->
<g id="node15" class="node">
<title>Robot Stationary?*</title>
<ellipse fill="gray" stroke="black" cx="821.4" cy="-90" rx="60.09" ry="18"/>
<text text-anchor="middle" x="821.4" y="-87.8" font-family="Times,serif" font-size="9.00">Robot Stationary?*</text>
</g>
<!-- Execute Place&#45;&gt;Robot Stationary?* -->
<g id="edge14" class="edge">
<title>Execute Place&#45;&gt;Robot Stationary?*</title>
<path fill="none" stroke="black" d="M644.63,-146.24C681.86,-134.6 733.65,-118.42 771.54,-106.58"/>
<polygon fill="black" stroke="black" points="772.85,-109.84 781.35,-103.52 770.76,-103.16 772.85,-109.84"/>
</g>
<!-- Set Home Position -->
<g id="node17" class="node">
<title>Set Home Position</title>
<ellipse fill="gray" stroke="black" cx="995.4" cy="-90" rx="58.13" ry="18"/>
<text text-anchor="middle" x="995.4" y="-87.8" font-family="Times,serif" font-size="9.00">Set Home Position</text>
</g>
<!-- Finish Place&#45;&gt;Set Home Position -->
<g id="edge16" class="edge">
<title>Finish Place&#45;&gt;Set Home Position</title>
<path fill="none" stroke="black" d="M1091.8,-31.81C1074.48,-42.08 1049.86,-56.69 1029.84,-68.57"/>
<polygon fill="black" stroke="black" points="1027.82,-65.7 1021,-73.81 1031.39,-71.72 1027.82,-65.7"/>
</g>
<!-- Wait 1 sec** -->
<g id="node18" class="node">
<title>Wait 1 sec**</title>
<ellipse fill="gray" stroke="black" cx="1113.4" cy="-90" rx="42.29" ry="18"/>
<text text-anchor="middle" x="1113.4" y="-87.8" font-family="Times,serif" font-size="9.00">Wait 1 sec**</text>
</g>
<!-- Finish Place&#45;&gt;Wait 1 sec** -->
<g id="edge17" class="edge">
<title>Finish Place&#45;&gt;Wait 1 sec**</title>
<path fill="none" stroke="black" d="M1113.4,-36.1C1113.4,-43.79 1113.4,-53.05 1113.4,-61.67"/>
<polygon fill="black" stroke="black" points="1109.9,-61.7 1113.4,-71.7 1116.9,-61.7 1109.9,-61.7"/>
</g>
<!-- Robot Stationary?** -->
<g id="node19" class="node">
<title>Robot Stationary?**</title>
<ellipse fill="gray" stroke="black" cx="1236.4" cy="-90" rx="62.21" ry="18"/>
<text text-anchor="middle" x="1236.4" y="-87.8" font-family="Times,serif" font-size="9.00">Robot Stationary?**</text>
</g>
<!-- Finish Place&#45;&gt;Robot Stationary?** -->
<g id="edge18" class="edge">
<title>Finish Place&#45;&gt;Robot Stationary?**</title>
<path fill="none" stroke="black" d="M1135.8,-31.75C1153.84,-42.02 1179.56,-56.65 1200.47,-68.56"/>
<polygon fill="black" stroke="black" points="1198.98,-71.73 1209.4,-73.64 1202.44,-65.65 1198.98,-71.73"/>
</g>
<!-- Finish Place* -->
<g id="node20" class="node">
<title>Finish Place*</title>
<ellipse fill="gray" stroke="black" cx="1361.4" cy="-90" rx="44.41" ry="18"/>
<text text-anchor="middle" x="1361.4" y="-87.8" font-family="Times,serif" font-size="9.00">Finish Place*</text>
</g>
<!-- Finish Place&#45;&gt;Finish Place* -->
<g id="edge19" class="edge">
<title>Finish Place&#45;&gt;Finish Place*</title>
<path fill="none" stroke="black" d="M1139.1,-29.85C1144.75,-32.04 1150.73,-34.21 1156.4,-36 1222.2,-56.74 1240.9,-53.63 1307.4,-72 1310.92,-72.97 1314.56,-74.02 1318.21,-75.1"/>
<polygon fill="black" stroke="black" points="1317.22,-78.46 1327.8,-78.02 1319.25,-71.76 1317.22,-78.46"/>
</g>
<!-- /placing -->
<g id="node24" class="node">
<title>/placing</title>
<polygon fill="white" stroke="blue" points="1221.9,-26.5 1164.9,-26.5 1164.9,-9.5 1221.9,-9.5 1221.9,-26.5"/>
<text text-anchor="middle" x="1193.4" y="-16.1" font-family="Times,serif" font-size="8.00" fill="blue">/placing: &#45;</text>
</g>
<!-- Finish Place&#45;&gt;/placing -->
<g id="edge37" class="edge">
<title>Finish Place&#45;&gt;/placing</title>
<path fill="none" stroke="blue" d="M1147.15,-18C1149.64,-18 1152.13,-18 1154.62,-18"/>
<polygon fill="blue" stroke="blue" points="1154.85,-21.5 1164.85,-18 1154.85,-14.5 1154.85,-21.5"/>
</g>
<!-- /robot_pose&#45;&gt;Robot Stationary? -->
<g id="edge20" class="edge">
<title>/robot_pose&#45;&gt;Robot Stationary?</title>
<path fill="none" stroke="green" d="M1285.44,-26.62C1270.04,-33.12 1247.55,-41.51 1226.9,-45 1142.43,-59.29 541.25,-52.35 455.9,-45 420.33,-41.94 380.7,-35 350.34,-28.92"/>
<polygon fill="green" stroke="green" points="350.92,-25.47 340.42,-26.9 349.52,-32.33 350.92,-25.47"/>
</g>
<!-- /robot_pose&#45;&gt;Robot Stationary? -->
<g id="edge21" class="edge">
<title>/robot_pose&#45;&gt;Robot Stationary?</title>
<path fill="none" stroke="green" d="M1289.91,-26.58C1273.99,-35.46 1247.35,-48.76 1222.4,-54 1180.97,-62.69 502.47,-58.67 460.4,-54 421.71,-49.7 378.72,-39.73 347.05,-31.37"/>
<polygon fill="green" stroke="green" points="347.75,-27.93 337.18,-28.72 345.93,-34.69 347.75,-27.93"/>
</g>
<!-- /robot_pose&#45;&gt;Robot Stationary? -->
<g id="edge23" class="edge">
<title>/robot_pose&#45;&gt;Robot Stationary?</title>
<path fill="none" stroke="green" d="M1292.54,-26.55C1276.53,-37.52 1246.67,-55.96 1217.9,-63 1177.26,-72.94 506.36,-68.57 464.9,-63 423.14,-57.39 376.99,-44.12 344.22,-33.43"/>
<polygon fill="green" stroke="green" points="345.1,-30.03 334.5,-30.21 342.89,-36.68 345.1,-30.03"/>
</g>
<!-- /robot_pose&#45;&gt;Robot at Place Position? -->
<g id="edge22" class="edge">
<title>/robot_pose&#45;&gt;Robot at Place Position?</title>
<path fill="none" stroke="green" d="M1289.91,-26.58C1273.99,-35.46 1247.35,-48.76 1222.4,-54 1160.63,-66.96 1143.48,-56.02 1080.4,-54 901.5,-48.27 691.02,-32.27 586.01,-23.66"/>
<polygon fill="green" stroke="green" points="586.13,-20.16 575.88,-22.83 585.55,-27.14 586.13,-20.16"/>
</g>
<!-- /robot_gripper&#45;&gt;Robot Stationary? -->
<g id="edge25" class="edge">
<title>/robot_gripper&#45;&gt;Robot Stationary?</title>
<path fill="none" stroke="green" d="M1438.88,-26.62C1421.43,-33.13 1396,-41.52 1372.9,-45 1322.52,-52.6 506.65,-49.37 455.9,-45 420.33,-41.94 380.7,-35 350.34,-28.92"/>
<polygon fill="green" stroke="green" points="350.92,-25.47 340.42,-26.9 349.52,-32.33 350.92,-25.47"/>
</g>
<!-- /robot_gripper&#45;&gt;Robot Stationary? -->
<g id="edge26" class="edge">
<title>/robot_gripper&#45;&gt;Robot Stationary?</title>
<path fill="none" stroke="green" d="M1444,-26.59C1426.02,-35.48 1396.04,-48.78 1368.4,-54 1318.83,-63.35 510.53,-59.57 460.4,-54 421.71,-49.7 378.72,-39.73 347.05,-31.37"/>
<polygon fill="green" stroke="green" points="347.75,-27.93 337.18,-28.72 345.93,-34.69 347.75,-27.93"/>
</g>
<!-- /robot_gripper&#45;&gt;Robot Stationary? -->
<g id="edge28" class="edge">
<title>/robot_gripper&#45;&gt;Robot Stationary?</title>
<path fill="none" stroke="green" d="M1447.01,-26.56C1428.98,-37.54 1395.48,-56 1363.9,-63 1315.14,-73.81 514.4,-69.65 464.9,-63 423.14,-57.39 376.99,-44.12 344.22,-33.43"/>
<polygon fill="green" stroke="green" points="345.1,-30.03 334.5,-30.21 342.89,-36.68 345.1,-30.03"/>
</g>
<!-- /robot_gripper&#45;&gt;Robot at Place Position? -->
<g id="edge27" class="edge">
<title>/robot_gripper&#45;&gt;Robot at Place Position?</title>
<path fill="none" stroke="green" d="M1444,-26.59C1426.02,-35.48 1396.04,-48.78 1368.4,-54 1218.69,-82.25 757.96,-41.49 585.48,-24.68"/>
<polygon fill="green" stroke="green" points="585.57,-21.17 575.28,-23.68 584.89,-28.14 585.57,-21.17"/>
</g>
<!-- /robot_status&#45;&gt;Robot Stationary? -->
<g id="edge30" class="edge">
<title>/robot_status&#45;&gt;Robot Stationary?</title>
<path fill="none" stroke="green" d="M1601.91,-26.62C1585.27,-33.13 1561.02,-41.51 1538.9,-45 1479.46,-54.37 515.84,-50.17 455.9,-45 420.33,-41.94 380.7,-35 350.34,-28.92"/>
<polygon fill="green" stroke="green" points="350.92,-25.47 340.42,-26.9 349.52,-32.33 350.92,-25.47"/>
</g>
<!-- /robot_status&#45;&gt;Robot Stationary? -->
<g id="edge31" class="edge">
<title>/robot_status&#45;&gt;Robot Stationary?</title>
<path fill="none" stroke="green" d="M1606.76,-26.58C1589.6,-35.47 1560.96,-48.78 1534.4,-54 1475.85,-65.51 519.7,-60.59 460.4,-54 421.71,-49.7 378.72,-39.73 347.05,-31.37"/>
<polygon fill="green" stroke="green" points="347.75,-27.93 337.18,-28.72 345.93,-34.69 347.75,-27.93"/>
</g>
<!-- /robot_status&#45;&gt;Robot Stationary? -->
<g id="edge33" class="edge">
<title>/robot_status&#45;&gt;Robot Stationary?</title>
<path fill="none" stroke="green" d="M1609.62,-26.56C1592.39,-37.53 1560.35,-55.99 1529.9,-63 1472.24,-76.28 523.54,-70.88 464.9,-63 423.14,-57.39 376.99,-44.12 344.22,-33.43"/>
<polygon fill="green" stroke="green" points="345.1,-30.03 334.5,-30.21 342.89,-36.68 345.1,-30.03"/>
</g>
<!-- /robot_status&#45;&gt;Robot at Place Position? -->
<g id="edge32" class="edge">
<title>/robot_status&#45;&gt;Robot at Place Position?</title>
<path fill="none" stroke="green" d="M1606.76,-26.58C1589.6,-35.47 1560.96,-48.78 1534.4,-54 1351.89,-89.89 780.83,-42.17 585.61,-24.28"/>
<polygon fill="green" stroke="green" points="585.77,-20.78 575.49,-23.35 585.13,-27.75 585.77,-20.78"/>
</g>
<!-- /placing&#45;&gt;Report Status -->
<g id="edge36" class="edge">
<title>/placing&#45;&gt;Report Status</title>
<path fill="none" stroke="green" d="M1185.73,-26.51C1177.16,-35.34 1162.36,-48.59 1146.4,-54 1090.94,-72.8 148.51,-70.73 92.4,-54 82.49,-51.05 72.72,-45.68 64.21,-39.97"/>
<polygon fill="green" stroke="green" points="66.03,-36.97 55.86,-33.99 61.95,-42.66 66.03,-36.97"/>
</g>
<!-- /placing&#45;&gt;Active? -->
<g id="edge35" class="edge">
<title>/placing&#45;&gt;Active?</title>
<path fill="none" stroke="green" d="M1185.73,-26.51C1177.16,-35.34 1162.36,-48.59 1146.4,-54 1099.46,-69.91 301.16,-70.4 254.4,-54 246.17,-51.11 238.32,-46.02 231.56,-40.55"/>
<polygon fill="green" stroke="green" points="233.43,-37.54 223.61,-33.57 228.81,-42.8 233.43,-37.54"/>
</g>
</g>
</svg>
