<?xml version="1.0" encoding="UTF-8" standalone="no"?>
<!DOCTYPE svg PUBLIC "-//W3C//DTD SVG 1.1//EN"
 "http://www.w3.org/Graphics/SVG/1.1/DTD/svg11.dtd">
<!-- Generated by graphviz version 2.43.0 (0)
 -->
<!-- Title: pastafarianism Pages: 1 -->
<svg width="2013pt" height="568pt"
 viewBox="0.00 0.00 2012.75 568.00" xmlns="http://www.w3.org/2000/svg" xmlns:xlink="http://www.w3.org/1999/xlink">
<g id="graph0" class="graph" transform="scale(1 1) rotate(0) translate(4 564)">
<title>pastafarianism</title>
<polygon fill="white" stroke="transparent" points="-4,4 -4,-564 2008.75,-564 2008.75,4 -4,4"/>
<!-- Task Pick And Place -->
<g id="node1" class="node">
<title>Task Pick And Place</title>
<polygon fill="gold" stroke="black" points="701.41,-560 521.63,-560 475.38,-504 655.16,-504 701.41,-560"/>
<text text-anchor="middle" x="588.4" y="-534.8" font-family="Times,serif" font-size="9.00">Task Pick And Place</text>
<text text-anchor="middle" x="588.4" y="-524.8" font-family="Times,serif" font-size="9.00">SuccessOnAll</text>
</g>
<!-- System State -->
<g id="node2" class="node">
<title>System State</title>
<polygon fill="orange" stroke="black" points="249.9,-108 160.9,-108 160.9,-72 249.9,-72 249.9,-108"/>
<text text-anchor="middle" x="205.4" y="-87.8" font-family="Times,serif" font-size="9.00">Ⓜ System State</text>
</g>
<!-- Task Pick And Place&#45;&gt;System State -->
<g id="edge1" class="edge">
<title>Task Pick And Place&#45;&gt;System State</title>
<path fill="none" stroke="black" d="M571.45,-503.85C554.65,-474.3 531.4,-425.08 531.4,-379 531.4,-379 531.4,-379 531.4,-233 531.4,-116.08 352.95,-94.44 260.11,-91.09"/>
<polygon fill="black" stroke="black" points="260.14,-87.59 250.04,-90.79 259.93,-94.59 260.14,-87.59"/>
</g>
<!-- System Monitor -->
<g id="node6" class="node">
<title>System Monitor</title>
<polygon fill="cyan" stroke="black" points="1027.63,-442.54 1027.63,-457.46 990.59,-468 938.2,-468 901.16,-457.46 901.16,-442.54 938.2,-432 990.59,-432 1027.63,-442.54"/>
<text text-anchor="middle" x="964.4" y="-447.8" font-family="Times,serif" font-size="9.00">Ⓜ System Monitor</text>
</g>
<!-- Task Pick And Place&#45;&gt;System Monitor -->
<g id="edge5" class="edge">
<title>Task Pick And Place&#45;&gt;System Monitor</title>
<path fill="none" stroke="black" d="M664.49,-514.81C735.47,-499.71 839.93,-477.48 904.97,-463.64"/>
<polygon fill="black" stroke="black" points="906,-467 915.06,-461.5 904.55,-460.16 906,-467"/>
</g>
<!-- Report Status -->
<g id="node3" class="node">
<title>Report Status</title>
<ellipse fill="gray" stroke="blue" cx="37.4" cy="-18" rx="37.29" ry="18"/>
<text text-anchor="middle" x="37.4" y="-16.4" font-family="Times,serif" font-size="7.00" fill="blue">Report Status</text>
</g>
<!-- System State&#45;&gt;Report Status -->
<g id="edge2" class="edge">
<title>System State&#45;&gt;Report Status</title>
<path fill="none" stroke="black" d="M164.3,-71.88C136.7,-60.38 100.66,-45.36 74.04,-34.27"/>
<polygon fill="black" stroke="black" points="75.27,-30.99 64.69,-30.37 72.57,-37.45 75.27,-30.99"/>
</g>
<!-- System Skills Status -->
<g id="node4" class="node">
<title>System Skills Status</title>
<ellipse fill="gray" stroke="blue" cx="143.4" cy="-18" rx="50.47" ry="18"/>
<text text-anchor="middle" x="143.4" y="-16.4" font-family="Times,serif" font-size="7.00" fill="blue">System Skills Status</text>
</g>
<!-- System State&#45;&gt;System Skills Status -->
<g id="edge3" class="edge">
<title>System State&#45;&gt;System Skills Status</title>
<path fill="none" stroke="black" d="M190.07,-71.7C182.45,-63.09 173.12,-52.55 164.8,-43.17"/>
<polygon fill="black" stroke="black" points="167.37,-40.79 158.12,-35.62 162.13,-45.43 167.37,-40.79"/>
</g>
<!-- System Monitor Status -->
<g id="node5" class="node">
<title>System Monitor Status</title>
<ellipse fill="gray" stroke="blue" cx="267.4" cy="-18" rx="55.63" ry="18"/>
<text text-anchor="middle" x="267.4" y="-16.4" font-family="Times,serif" font-size="7.00" fill="blue">System Monitor Status</text>
</g>
<!-- System State&#45;&gt;System Monitor Status -->
<g id="edge4" class="edge">
<title>System State&#45;&gt;System Monitor Status</title>
<path fill="none" stroke="black" d="M220.72,-71.7C228.34,-63.09 237.68,-52.55 245.99,-43.17"/>
<polygon fill="black" stroke="black" points="248.66,-45.43 252.67,-35.62 243.42,-40.79 248.66,-45.43"/>
</g>
<!-- /place_status -->
<g id="node29" class="node">
<title>/place_status</title>
<polygon fill="white" stroke="blue" points="554.9,-26.5 409.9,-26.5 409.9,-9.5 554.9,-9.5 554.9,-26.5"/>
<text text-anchor="middle" x="482.4" y="-16.1" font-family="Times,serif" font-size="8.00" fill="blue">/place_status: {&#39;status&#39;: &#39;unkno...</text>
</g>
<!-- System Skills Status&#45;&gt;/place_status -->
<g id="edge28" class="edge">
<title>System Skills Status&#45;&gt;/place_status</title>
<path fill="none" stroke="blue" d="M166.79,-34.04C179.4,-41.71 195.58,-50.07 211.4,-54 289.04,-73.28 312.81,-68.98 391.4,-54 414.49,-49.6 439.21,-39.44 457.04,-31.03"/>
<polygon fill="blue" stroke="blue" points="458.72,-34.1 466.19,-26.59 455.67,-27.81 458.72,-34.1"/>
</g>
<!-- /pick_status -->
<g id="node31" class="node">
<title>/pick_status</title>
<polygon fill="white" stroke="blue" points="713.4,-26.5 573.4,-26.5 573.4,-9.5 713.4,-9.5 713.4,-26.5"/>
<text text-anchor="middle" x="643.4" y="-16.1" font-family="Times,serif" font-size="8.00" fill="blue">/pick_status: {&#39;status&#39;: &#39;unkno...</text>
</g>
<!-- System Skills Status&#45;&gt;/pick_status -->
<g id="edge34" class="edge">
<title>System Skills Status&#45;&gt;/pick_status</title>
<path fill="none" stroke="blue" d="M166.79,-34.04C179.4,-41.71 195.58,-50.07 211.4,-54 285.37,-72.37 479.58,-68.56 554.4,-54 576.83,-49.64 600.76,-39.62 618.15,-31.26"/>
<polygon fill="blue" stroke="blue" points="620.17,-34.16 627.57,-26.58 617.06,-27.89 620.17,-34.16"/>
</g>
<!-- /stage -->
<g id="node33" class="node">
<title>/stage</title>
<polygon fill="white" stroke="blue" points="1167.9,-26.5 1118.9,-26.5 1118.9,-9.5 1167.9,-9.5 1167.9,-26.5"/>
<text text-anchor="middle" x="1143.4" y="-16.1" font-family="Times,serif" font-size="8.00" fill="blue">/stage: &#45;</text>
</g>
<!-- System Skills Status&#45;&gt;/stage -->
<g id="edge44" class="edge">
<title>System Skills Status&#45;&gt;/stage</title>
<path fill="none" stroke="blue" d="M166.79,-34.04C179.4,-41.71 195.58,-50.07 211.4,-54 259.38,-65.92 1055.02,-71.15 1101.4,-54 1112.11,-50.04 1121.94,-41.98 1129.39,-34.49"/>
<polygon fill="blue" stroke="blue" points="1132.26,-36.54 1136.47,-26.81 1127.12,-31.79 1132.26,-36.54"/>
</g>
<!-- /system_status -->
<g id="node32" class="node">
<title>/system_status</title>
<polygon fill="white" stroke="blue" points="931.4,-26.5 815.4,-26.5 815.4,-9.5 931.4,-9.5 931.4,-26.5"/>
<text text-anchor="middle" x="873.4" y="-16.1" font-family="Times,serif" font-size="8.00" fill="blue">/system_status: unknown</text>
</g>
<!-- System Monitor Status&#45;&gt;/system_status -->
<g id="edge36" class="edge">
<title>System Monitor Status&#45;&gt;/system_status</title>
<path fill="none" stroke="blue" d="M293,-34.24C306.53,-41.86 323.74,-50.12 340.4,-54 439.3,-77.06 698.32,-76.28 797.4,-54 816.56,-49.69 836.57,-39.97 851.25,-31.71"/>
<polygon fill="blue" stroke="blue" points="853.18,-34.63 860.06,-26.57 849.66,-28.59 853.18,-34.63"/>
</g>
<!-- Workflow -->
<g id="node7" class="node">
<title>Workflow</title>
<polygon fill="orange" stroke="black" points="999.9,-396 928.9,-396 928.9,-360 999.9,-360 999.9,-396"/>
<text text-anchor="middle" x="964.4" y="-375.8" font-family="Times,serif" font-size="9.00">Ⓜ Workflow</text>
</g>
<!-- System Monitor&#45;&gt;Workflow -->
<g id="edge6" class="edge">
<title>System Monitor&#45;&gt;Workflow</title>
<path fill="none" stroke="black" d="M964.4,-431.7C964.4,-423.98 964.4,-414.71 964.4,-406.11"/>
<polygon fill="black" stroke="black" points="967.9,-406.1 964.4,-396.1 960.9,-406.1 967.9,-406.1"/>
</g>
<!-- Fallback -->
<g id="node24" class="node">
<title>Fallback</title>
<polygon fill="orange" stroke="black" points="1815.4,-180 1747.4,-180 1747.4,-144 1815.4,-144 1815.4,-180"/>
<text text-anchor="middle" x="1781.4" y="-159.8" font-family="Times,serif" font-size="9.00">Ⓜ Fallback</text>
</g>
<!-- System Monitor&#45;&gt;Fallback -->
<g id="edge23" class="edge">
<title>System Monitor&#45;&gt;Fallback</title>
<path fill="none" stroke="black" d="M1002.98,-435.49C1138.73,-387.97 1593.89,-228.64 1737.56,-178.35"/>
<polygon fill="black" stroke="black" points="1739.07,-181.52 1747.35,-174.92 1736.76,-174.92 1739.07,-181.52"/>
</g>
<!-- System OK? -->
<g id="node8" class="node">
<title>System OK?</title>
<ellipse fill="gray" stroke="blue" cx="764.4" cy="-18" rx="33.48" ry="18"/>
<text text-anchor="middle" x="764.4" y="-16.4" font-family="Times,serif" font-size="7.00" fill="blue">System OK?</text>
</g>
<!-- Workflow&#45;&gt;System OK? -->
<g id="edge7" class="edge">
<title>Workflow&#45;&gt;System OK?</title>
<path fill="none" stroke="black" d="M931.09,-359.87C891.98,-337.09 832.4,-292.89 832.4,-235 832.4,-235 832.4,-235 832.4,-161 832.4,-115.86 804.1,-69.87 784.02,-42.91"/>
<polygon fill="black" stroke="black" points="786.7,-40.65 777.83,-34.85 781.14,-44.92 786.7,-40.65"/>
</g>
<!-- Pick And Place -->
<g id="node9" class="node">
<title>Pick And Place</title>
<polygon fill="orange" stroke="black" points="1025.4,-324 927.4,-324 927.4,-288 1025.4,-288 1025.4,-324"/>
<text text-anchor="middle" x="976.4" y="-303.8" font-family="Times,serif" font-size="9.00">Ⓜ Pick And Place</text>
</g>
<!-- Workflow&#45;&gt;Pick And Place -->
<g id="edge8" class="edge">
<title>Workflow&#45;&gt;Pick And Place</title>
<path fill="none" stroke="black" d="M967.36,-359.7C968.69,-351.98 970.27,-342.71 971.75,-334.11"/>
<polygon fill="black" stroke="black" points="975.22,-334.55 973.46,-324.1 968.32,-333.37 975.22,-334.55"/>
</g>
<!-- Active? -->
<g id="node10" class="node">
<title>Active?</title>
<ellipse fill="gray" stroke="blue" cx="976.4" cy="-18" rx="27" ry="18"/>
<text text-anchor="middle" x="976.4" y="-16.4" font-family="Times,serif" font-size="7.00" fill="blue">Active?</text>
</g>
<!-- Pick And Place&#45;&gt;Active? -->
<g id="edge9" class="edge">
<title>Pick And Place&#45;&gt;Active?</title>
<path fill="none" stroke="black" d="M976.4,-287.97C976.4,-240.29 976.4,-105.18 976.4,-46.63"/>
<polygon fill="black" stroke="black" points="979.9,-46.31 976.4,-36.31 972.9,-46.31 979.9,-46.31"/>
</g>
<!-- System Skills -->
<g id="node11" class="node">
<title>System Skills</title>
<polygon fill="cyan" stroke="black" points="1363.13,-226.54 1363.13,-241.46 1330.48,-252 1284.31,-252 1251.66,-241.46 1251.66,-226.54 1284.31,-216 1330.48,-216 1363.13,-226.54"/>
<text text-anchor="middle" x="1307.4" y="-231.8" font-family="Times,serif" font-size="9.00">Ⓜ System Skills</text>
</g>
<!-- Pick And Place&#45;&gt;System Skills -->
<g id="edge10" class="edge">
<title>Pick And Place&#45;&gt;System Skills</title>
<path fill="none" stroke="black" d="M1025.59,-294.6C1086.02,-281.82 1188.28,-260.19 1251.59,-246.8"/>
<polygon fill="black" stroke="black" points="1252.34,-250.22 1261.4,-244.73 1250.89,-243.37 1252.34,-250.22"/>
</g>
<!-- Pick -->
<g id="node12" class="node">
<title>Pick</title>
<polygon fill="orange" stroke="black" points="1198.4,-180 1144.4,-180 1144.4,-144 1198.4,-144 1198.4,-180"/>
<text text-anchor="middle" x="1171.4" y="-159.8" font-family="Times,serif" font-size="9.00">Ⓜ Pick</text>
</g>
<!-- System Skills&#45;&gt;Pick -->
<g id="edge11" class="edge">
<title>System Skills&#45;&gt;Pick</title>
<path fill="none" stroke="black" d="M1277.89,-217.81C1257.24,-207.19 1229.54,-192.93 1207.57,-181.62"/>
<polygon fill="black" stroke="black" points="1209.03,-178.43 1198.54,-176.97 1205.83,-184.66 1209.03,-178.43"/>
</g>
<!-- Place -->
<g id="node16" class="node">
<title>Place</title>
<polygon fill="orange" stroke="black" points="1334.4,-180 1280.4,-180 1280.4,-144 1334.4,-144 1334.4,-180"/>
<text text-anchor="middle" x="1307.4" y="-159.8" font-family="Times,serif" font-size="9.00">Ⓜ Place</text>
</g>
<!-- System Skills&#45;&gt;Place -->
<g id="edge15" class="edge">
<title>System Skills&#45;&gt;Place</title>
<path fill="none" stroke="black" d="M1307.4,-215.7C1307.4,-207.98 1307.4,-198.71 1307.4,-190.11"/>
<polygon fill="black" stroke="black" points="1310.9,-190.1 1307.4,-180.1 1303.9,-190.1 1310.9,-190.1"/>
</g>
<!-- Finish Pick And Place -->
<g id="node20" class="node">
<title>Finish Pick And Place</title>
<ellipse fill="gray" stroke="blue" cx="1498.4" cy="-18" rx="52.43" ry="18"/>
<text text-anchor="middle" x="1498.4" y="-16.4" font-family="Times,serif" font-size="7.00" fill="blue">Finish Pick And Place</text>
</g>
<!-- System Skills&#45;&gt;Finish Pick And Place -->
<g id="edge19" class="edge">
<title>System Skills&#45;&gt;Finish Pick And Place</title>
<path fill="none" stroke="black" d="M1361.11,-225.84C1426.1,-213.98 1532.83,-183.54 1581.4,-108 1590.05,-94.54 1589.08,-86.03 1581.4,-72 1572.89,-56.48 1557.69,-44.84 1542.61,-36.49"/>
<polygon fill="black" stroke="black" points="1543.78,-33.16 1533.29,-31.71 1540.59,-39.39 1543.78,-33.16"/>
</g>
<!-- Idle Status -->
<g id="node23" class="node">
<title>Idle Status</title>
<ellipse fill="gray" stroke="blue" cx="1691.4" cy="-18" rx="31.02" ry="18"/>
<text text-anchor="middle" x="1691.4" y="-16.4" font-family="Times,serif" font-size="7.00" fill="blue">Idle Status</text>
</g>
<!-- System Skills&#45;&gt;Idle Status -->
<g id="edge22" class="edge">
<title>System Skills&#45;&gt;Idle Status</title>
<path fill="none" stroke="black" d="M1363.14,-229.16C1411.85,-223.79 1483.08,-210.89 1537.4,-180 1598.15,-145.45 1649.86,-79.47 1675.03,-43.63"/>
<polygon fill="black" stroke="black" points="1678.04,-45.43 1680.84,-35.21 1672.28,-41.45 1678.04,-45.43"/>
</g>
<!-- System Active? -->
<g id="node13" class="node">
<title>System Active?</title>
<ellipse fill="gray" stroke="blue" cx="1061.4" cy="-18" rx="39.76" ry="18"/>
<text text-anchor="middle" x="1061.4" y="-16.4" font-family="Times,serif" font-size="7.00" fill="blue">System Active?</text>
</g>
<!-- Pick&#45;&gt;System Active? -->
<g id="edge12" class="edge">
<title>Pick&#45;&gt;System Active?</title>
<path fill="none" stroke="black" d="M1158.13,-143.87C1138.76,-118.87 1102.64,-72.25 1080.44,-43.59"/>
<polygon fill="black" stroke="black" points="1082.92,-41.07 1074.03,-35.31 1077.39,-45.36 1082.92,-41.07"/>
</g>
<!-- Call Pick -->
<g id="node14" class="node">
<title>Call Pick</title>
<ellipse fill="gray" stroke="blue" cx="1213.4" cy="-18" rx="27" ry="18"/>
<text text-anchor="middle" x="1213.4" y="-16.4" font-family="Times,serif" font-size="7.00" fill="blue">Call Pick</text>
</g>
<!-- Pick&#45;&gt;Call Pick -->
<g id="edge13" class="edge">
<title>Pick&#45;&gt;Call Pick</title>
<path fill="none" stroke="black" d="M1163.68,-143.91C1156.53,-125.47 1148.38,-95.57 1158.4,-72 1164.23,-58.29 1175.53,-46.4 1186.39,-37.38"/>
<polygon fill="black" stroke="black" points="1188.76,-39.97 1194.5,-31.06 1184.46,-34.45 1188.76,-39.97"/>
</g>
<!-- Wait 1 sec -->
<g id="node15" class="node">
<title>Wait 1 sec</title>
<ellipse fill="gray" stroke="black" cx="1204.4" cy="-90" rx="36.9" ry="18"/>
<text text-anchor="middle" x="1204.4" y="-87.8" font-family="Times,serif" font-size="9.00">Wait 1 sec</text>
</g>
<!-- Pick&#45;&gt;Wait 1 sec -->
<g id="edge14" class="edge">
<title>Pick&#45;&gt;Wait 1 sec</title>
<path fill="none" stroke="black" d="M1179.55,-143.7C1183.37,-135.61 1187.99,-125.81 1192.2,-116.87"/>
<polygon fill="black" stroke="black" points="1195.46,-118.16 1196.56,-107.62 1189.13,-115.18 1195.46,-118.16"/>
</g>
<!-- Call Pick&#45;&gt;/stage -->
<g id="edge47" class="edge">
<title>Call Pick&#45;&gt;/stage</title>
<path fill="none" stroke="blue" d="M1186.09,-18C1183.45,-18 1180.82,-18 1178.18,-18"/>
<polygon fill="blue" stroke="blue" points="1178.01,-14.5 1168.01,-18 1178.01,-21.5 1178.01,-14.5"/>
</g>
<!-- Pick Ready? -->
<g id="node17" class="node">
<title>Pick Ready?</title>
<ellipse fill="gray" stroke="blue" cx="1291.4" cy="-18" rx="33.48" ry="18"/>
<text text-anchor="middle" x="1291.4" y="-16.4" font-family="Times,serif" font-size="7.00" fill="blue">Pick Ready?</text>
</g>
<!-- Place&#45;&gt;Pick Ready? -->
<g id="edge16" class="edge">
<title>Place&#45;&gt;Pick Ready?</title>
<path fill="none" stroke="black" d="M1301.67,-143.55C1298.6,-133.31 1295.1,-120.06 1293.4,-108 1290.5,-87.47 1290.09,-64.02 1290.35,-46.34"/>
<polygon fill="black" stroke="black" points="1293.86,-46.24 1290.59,-36.16 1286.86,-46.07 1293.86,-46.24"/>
</g>
<!-- Call Place -->
<g id="node18" class="node">
<title>Call Place</title>
<ellipse fill="gray" stroke="blue" cx="1372.4" cy="-18" rx="29.66" ry="18"/>
<text text-anchor="middle" x="1372.4" y="-16.4" font-family="Times,serif" font-size="7.00" fill="blue">Call Place</text>
</g>
<!-- Place&#45;&gt;Call Place -->
<g id="edge17" class="edge">
<title>Place&#45;&gt;Call Place</title>
<path fill="none" stroke="black" d="M1308.51,-143.76C1310.29,-125.19 1314.83,-95.19 1326.4,-72 1332.12,-60.53 1340.9,-49.54 1349.27,-40.57"/>
<polygon fill="black" stroke="black" points="1351.94,-42.84 1356.42,-33.24 1346.93,-37.95 1351.94,-42.84"/>
</g>
<!-- Wait 1 sec* -->
<g id="node19" class="node">
<title>Wait 1 sec*</title>
<ellipse fill="gray" stroke="black" cx="1374.4" cy="-90" rx="39.02" ry="18"/>
<text text-anchor="middle" x="1374.4" y="-87.8" font-family="Times,serif" font-size="9.00">Wait 1 sec*</text>
</g>
<!-- Place&#45;&gt;Wait 1 sec* -->
<g id="edge18" class="edge">
<title>Place&#45;&gt;Wait 1 sec*</title>
<path fill="none" stroke="black" d="M1323.96,-143.7C1332.52,-134.75 1343.08,-123.71 1352.33,-114.06"/>
<polygon fill="black" stroke="black" points="1355.01,-116.32 1359.4,-106.67 1349.95,-111.48 1355.01,-116.32"/>
</g>
<!-- Call Place&#45;&gt;/stage -->
<g id="edge41" class="edge">
<title>Call Place&#45;&gt;/stage</title>
<path fill="none" stroke="blue" d="M1357.05,-33.59C1348.29,-41.34 1336.65,-49.92 1324.4,-54 1266.21,-73.4 1244.04,-74.95 1186.4,-54 1175.51,-50.04 1165.46,-41.99 1157.81,-34.5"/>
<polygon fill="blue" stroke="blue" points="1159.95,-31.67 1150.54,-26.82 1154.87,-36.49 1159.95,-31.67"/>
</g>
<!-- Place Ready? -->
<g id="node21" class="node">
<title>Place Ready?</title>
<ellipse fill="gray" stroke="blue" cx="1605.4" cy="-18" rx="36.06" ry="18"/>
<text text-anchor="middle" x="1605.4" y="-16.4" font-family="Times,serif" font-size="7.00" fill="blue">Place Ready?</text>
</g>
<!-- Finish Pick And Place&#45;&gt;Place Ready? -->
<g id="edge20" class="edge">
<title>Finish Pick And Place&#45;&gt;Place Ready?</title>
<path fill="none" stroke="black" d="M1551.06,-18C1553.66,-18 1556.26,-18 1558.86,-18"/>
<polygon fill="black" stroke="black" points="1558.89,-21.5 1568.89,-18 1558.89,-14.5 1558.89,-21.5"/>
</g>
<!-- Finish Pick And Place* -->
<g id="node22" class="node">
<title>Finish Pick And Place*</title>
<ellipse fill="gray" stroke="black" cx="1502.4" cy="-90" rx="70.37" ry="18"/>
<text text-anchor="middle" x="1502.4" y="-87.8" font-family="Times,serif" font-size="9.00">Finish Pick And Place*</text>
</g>
<!-- Finish Pick And Place&#45;&gt;Finish Pick And Place* -->
<g id="edge21" class="edge">
<title>Finish Pick And Place&#45;&gt;Finish Pick And Place*</title>
<path fill="none" stroke="black" d="M1499.37,-36.1C1499.81,-43.79 1500.34,-53.05 1500.83,-61.67"/>
<polygon fill="black" stroke="black" points="1497.34,-61.91 1501.41,-71.7 1504.33,-61.51 1497.34,-61.91"/>
</g>
<!-- /active -->
<g id="node30" class="node">
<title>/active</title>
<polygon fill="white" stroke="blue" points="391.9,-26.5 340.9,-26.5 340.9,-9.5 391.9,-9.5 391.9,-26.5"/>
<text text-anchor="middle" x="366.4" y="-16.1" font-family="Times,serif" font-size="8.00" fill="blue">/active: &#45;</text>
</g>
<!-- Finish Pick And Place&#45;&gt;/active -->
<g id="edge32" class="edge">
<title>Finish Pick And Place&#45;&gt;/active</title>
<path fill="none" stroke="blue" d="M1467.64,-32.76C1449.19,-40.79 1424.99,-49.9 1402.4,-54 1348.12,-63.84 461.25,-72.84 409.4,-54 398.51,-50.04 388.46,-41.99 380.81,-34.5"/>
<polygon fill="blue" stroke="blue" points="382.95,-31.67 373.54,-26.82 377.87,-36.49 382.95,-31.67"/>
</g>
<!-- Finish Pick And Place&#45;&gt;/stage -->
<g id="edge45" class="edge">
<title>Finish Pick And Place&#45;&gt;/stage</title>
<path fill="none" stroke="blue" d="M1467.64,-32.76C1449.19,-40.79 1424.99,-49.9 1402.4,-54 1355.17,-62.56 1231.51,-70.39 1186.4,-54 1175.51,-50.04 1165.46,-41.99 1157.81,-34.5"/>
<polygon fill="blue" stroke="blue" points="1159.95,-31.67 1150.54,-26.82 1154.87,-36.49 1159.95,-31.67"/>
</g>
<!-- Active?* -->
<g id="node25" class="node">
<title>Active?*</title>
<ellipse fill="gray" stroke="black" cx="1721.4" cy="-90" rx="31.51" ry="18"/>
<text text-anchor="middle" x="1721.4" y="-87.8" font-family="Times,serif" font-size="9.00">Active?*</text>
</g>
<!-- Fallback&#45;&gt;Active?* -->
<g id="edge24" class="edge">
<title>Fallback&#45;&gt;Active?*</title>
<path fill="none" stroke="black" d="M1766.57,-143.7C1758.97,-134.84 1749.62,-123.93 1741.4,-114.34"/>
<polygon fill="black" stroke="black" points="1743.99,-111.99 1734.83,-106.67 1738.68,-116.54 1743.99,-111.99"/>
</g>
<!-- Abort Pick -->
<g id="node26" class="node">
<title>Abort Pick</title>
<ellipse fill="gray" stroke="blue" cx="1770.4" cy="-18" rx="30.28" ry="18"/>
<text text-anchor="middle" x="1770.4" y="-16.4" font-family="Times,serif" font-size="7.00" fill="blue">Abort Pick</text>
</g>
<!-- Fallback&#45;&gt;Abort Pick -->
<g id="edge25" class="edge">
<title>Fallback&#45;&gt;Abort Pick</title>
<path fill="none" stroke="black" d="M1780.07,-143.87C1778.19,-119.67 1774.75,-75.21 1772.52,-46.39"/>
<polygon fill="black" stroke="black" points="1775.99,-45.89 1771.73,-36.19 1769.01,-46.43 1775.99,-45.89"/>
</g>
<!-- Abort Place -->
<g id="node27" class="node">
<title>Abort Place</title>
<ellipse fill="gray" stroke="blue" cx="1851.4" cy="-18" rx="32.86" ry="18"/>
<text text-anchor="middle" x="1851.4" y="-16.4" font-family="Times,serif" font-size="7.00" fill="blue">Abort Place</text>
</g>
<!-- Fallback&#45;&gt;Abort Place -->
<g id="edge26" class="edge">
<title>Fallback&#45;&gt;Abort Place</title>
<path fill="none" stroke="black" d="M1789.84,-143.87C1801.99,-119.22 1824.51,-73.54 1838.68,-44.79"/>
<polygon fill="black" stroke="black" points="1841.86,-46.27 1843.14,-35.75 1835.58,-43.17 1841.86,-46.27"/>
</g>
<!-- Abort Pick And Place -->
<g id="node28" class="node">
<title>Abort Pick And Place</title>
<ellipse fill="gray" stroke="blue" cx="1953.4" cy="-18" rx="51.2" ry="18"/>
<text text-anchor="middle" x="1953.4" y="-16.4" font-family="Times,serif" font-size="7.00" fill="blue">Abort Pick And Place</text>
</g>
<!-- Fallback&#45;&gt;Abort Pick And Place -->
<g id="edge27" class="edge">
<title>Fallback&#45;&gt;Abort Pick And Place</title>
<path fill="none" stroke="black" d="M1802.14,-143.87C1833.25,-118.19 1891.97,-69.71 1926.38,-41.3"/>
<polygon fill="black" stroke="black" points="1928.68,-43.95 1934.16,-34.88 1924.22,-38.55 1928.68,-43.95"/>
</g>
<!-- Abort Pick&#45;&gt;/stage -->
<g id="edge42" class="edge">
<title>Abort Pick&#45;&gt;/stage</title>
<path fill="none" stroke="blue" d="M1755.05,-33.59C1746.29,-41.34 1734.65,-49.92 1722.4,-54 1665.9,-72.83 1242.37,-74.34 1186.4,-54 1175.51,-50.04 1165.46,-41.99 1157.81,-34.5"/>
<polygon fill="blue" stroke="blue" points="1159.95,-31.67 1150.54,-26.82 1154.87,-36.49 1159.95,-31.67"/>
</g>
<!-- Abort Place&#45;&gt;/stage -->
<g id="edge43" class="edge">
<title>Abort Place&#45;&gt;/stage</title>
<path fill="none" stroke="blue" d="M1834.92,-33.6C1825.57,-41.36 1813.21,-49.93 1800.4,-54 1735.37,-74.64 1250.52,-77.3 1186.4,-54 1175.51,-50.04 1165.46,-41.99 1157.81,-34.5"/>
<polygon fill="blue" stroke="blue" points="1159.95,-31.67 1150.54,-26.82 1154.87,-36.49 1159.95,-31.67"/>
</g>
<!-- Abort Pick And Place&#45;&gt;/active -->
<g id="edge33" class="edge">
<title>Abort Pick And Place&#45;&gt;/active</title>
<path fill="none" stroke="blue" d="M1929.63,-34.04C1916.83,-41.71 1900.41,-50.07 1884.4,-54 1804.81,-73.51 486.41,-81.98 409.4,-54 398.51,-50.04 388.46,-41.99 380.81,-34.5"/>
<polygon fill="blue" stroke="blue" points="382.95,-31.67 373.54,-26.82 377.87,-36.49 382.95,-31.67"/>
</g>
<!-- Abort Pick And Place&#45;&gt;/stage -->
<g id="edge46" class="edge">
<title>Abort Pick And Place&#45;&gt;/stage</title>
<path fill="none" stroke="blue" d="M1929.63,-34.04C1916.83,-41.71 1900.41,-50.07 1884.4,-54 1809.07,-72.47 1259.29,-80.49 1186.4,-54 1175.51,-50.04 1165.46,-41.99 1157.81,-34.5"/>
<polygon fill="blue" stroke="blue" points="1159.95,-31.67 1150.54,-26.82 1154.87,-36.49 1159.95,-31.67"/>
</g>
<!-- /active&#45;&gt;Report Status -->
<g id="edge30" class="edge">
<title>/active&#45;&gt;Report Status</title>
<path fill="none" stroke="green" d="M359.26,-26.82C351.5,-35.63 338.22,-48.61 323.4,-54 275.36,-71.45 142.44,-68.4 93.4,-54 83.17,-51 73.04,-45.48 64.27,-39.66"/>
<polygon fill="green" stroke="green" points="66.18,-36.72 55.99,-33.81 62.14,-42.44 66.18,-36.72"/>
</g>
<!-- /active&#45;&gt;Active? -->
<g id="edge29" class="edge">
<title>/active&#45;&gt;Active?</title>
<path fill="none" stroke="green" d="M374.64,-26.76C382.12,-34.03 393.88,-43.83 406.4,-48 434.22,-57.28 906.46,-56.95 934.4,-48 940.67,-45.99 946.8,-42.66 952.36,-38.94"/>
<polygon fill="green" stroke="green" points="954.58,-41.64 960.55,-32.89 950.43,-36.01 954.58,-41.64"/>
</g>
<!-- /active&#45;&gt;Active? -->
<g id="edge31" class="edge">
<title>/active&#45;&gt;Active?</title>
<path fill="none" stroke="green" d="M372.68,-26.78C380.6,-37.01 395.26,-53.35 412.4,-60 439.12,-70.37 901.56,-70.08 928.4,-60 938.81,-56.09 948.45,-48.77 956.31,-41.33"/>
<polygon fill="green" stroke="green" points="959.03,-43.55 963.55,-33.97 954.04,-38.65 959.03,-43.55"/>
</g>
<!-- /system_status&#45;&gt;System OK? -->
<g id="edge35" class="edge">
<title>/system_status&#45;&gt;System OK?</title>
<path fill="none" stroke="green" d="M815.11,-18C812.8,-18 810.48,-18 808.17,-18"/>
<polygon fill="green" stroke="green" points="808.03,-14.5 798.03,-18 808.03,-21.5 808.03,-14.5"/>
</g>
<!-- /stage&#45;&gt;System Active? -->
<g id="edge38" class="edge">
<title>/stage&#45;&gt;System Active?</title>
<path fill="none" stroke="green" d="M1118.62,-18C1116.16,-18 1113.7,-18 1111.24,-18"/>
<polygon fill="green" stroke="green" points="1111.12,-14.5 1101.12,-18 1111.12,-21.5 1111.12,-14.5"/>
</g>
<!-- /stage&#45;&gt;Pick Ready? -->
<g id="edge40" class="edge">
<title>/stage&#45;&gt;Pick Ready?</title>
<path fill="none" stroke="green" d="M1150.54,-26.82C1158.29,-35.63 1171.57,-48.61 1186.4,-54 1208.95,-62.2 1217.52,-61.26 1240.4,-54 1249.65,-51.06 1258.68,-45.77 1266.5,-40.13"/>
<polygon fill="green" stroke="green" points="1268.69,-42.86 1274.46,-33.98 1264.41,-37.32 1268.69,-42.86"/>
</g>
<!-- /stage&#45;&gt;Place Ready? -->
<g id="edge37" class="edge">
<title>/stage&#45;&gt;Place Ready?</title>
<path fill="none" stroke="green" d="M1150.54,-26.82C1158.29,-35.63 1171.57,-48.61 1186.4,-54 1224.41,-67.81 1511.64,-65.56 1550.4,-54 1560.3,-51.05 1570.08,-45.68 1578.58,-39.97"/>
<polygon fill="green" stroke="green" points="1580.84,-42.66 1586.93,-33.99 1576.76,-36.97 1580.84,-42.66"/>
</g>
<!-- /stage&#45;&gt;Idle Status -->
<g id="edge39" class="edge">
<title>/stage&#45;&gt;Idle Status</title>
<path fill="none" stroke="green" d="M1150.54,-26.82C1158.29,-35.63 1171.57,-48.61 1186.4,-54 1233.91,-71.26 1593.28,-69.52 1641.4,-54 1650.67,-51.01 1659.67,-45.59 1667.42,-39.85"/>
<polygon fill="green" stroke="green" points="1669.64,-42.56 1675.29,-33.6 1665.29,-37.08 1669.64,-42.56"/>
</g>
</g>
</svg>
