<?xml version="1.0" encoding="UTF-8" standalone="no"?>
<!DOCTYPE svg PUBLIC "-//W3C//DTD SVG 1.1//EN"
 "http://www.w3.org/Graphics/SVG/1.1/DTD/svg11.dtd">
<!-- Generated by graphviz version 2.43.0 (0)
 -->
<!-- Title: pastafarianism Pages: 1 -->
<svg width="959pt" height="496pt"
 viewBox="0.00 0.00 959.05 496.00" xmlns="http://www.w3.org/2000/svg" xmlns:xlink="http://www.w3.org/1999/xlink">
<g id="graph0" class="graph" transform="scale(1 1) rotate(0) translate(4 492)">
<title>pastafarianism</title>
<polygon fill="white" stroke="transparent" points="-4,4 -4,-492 955.05,-492 955.05,4 -4,4"/>
<!-- Task Pick And Place -->
<g id="node1" class="node">
<title>Task Pick And Place</title>
<polygon fill="gold" stroke="black" points="451.66,-488 271.89,-488 225.64,-432 405.42,-432 451.66,-488"/>
<text text-anchor="middle" x="338.65" y="-462.8" font-family="Times,serif" font-size="9.00">Task Pick And Place</text>
<text text-anchor="middle" x="338.65" y="-452.8" font-family="Times,serif" font-size="9.00">SuccessOnAll</text>
</g>
<!-- System State -->
<g id="node2" class="node">
<title>System State</title>
<polygon fill="orange" stroke="black" points="320.15,-396 231.15,-396 231.15,-360 320.15,-360 320.15,-396"/>
<text text-anchor="middle" x="275.65" y="-375.8" font-family="Times,serif" font-size="9.00">Ⓜ System State</text>
</g>
<!-- Task Pick And Place&#45;&gt;System State -->
<g id="edge1" class="edge">
<title>Task Pick And Place&#45;&gt;System State</title>
<path fill="none" stroke="black" d="M317.32,-431.92C310.29,-422.98 302.5,-413.09 295.57,-404.3"/>
<polygon fill="black" stroke="black" points="298.19,-401.96 289.25,-396.27 292.69,-406.29 298.19,-401.96"/>
</g>
<!-- System Monitor -->
<g id="node6" class="node">
<title>System Monitor</title>
<polygon fill="cyan" stroke="black" points="539.89,-370.54 539.89,-385.46 502.84,-396 450.46,-396 413.42,-385.46 413.42,-370.54 450.46,-360 502.84,-360 539.89,-370.54"/>
<text text-anchor="middle" x="476.65" y="-375.8" font-family="Times,serif" font-size="9.00">Ⓜ System Monitor</text>
</g>
<!-- Task Pick And Place&#45;&gt;System Monitor -->
<g id="edge5" class="edge">
<title>Task Pick And Place&#45;&gt;System Monitor</title>
<path fill="none" stroke="black" d="M385.37,-431.92C402.92,-421.74 422.63,-410.32 439.22,-400.7"/>
<polygon fill="black" stroke="black" points="441.19,-403.6 448.09,-395.56 437.68,-397.55 441.19,-403.6"/>
</g>
<!-- Report Status -->
<g id="node3" class="node">
<title>Report Status</title>
<ellipse fill="gray" stroke="black" cx="72.65" cy="-306" rx="46.38" ry="18"/>
<text text-anchor="middle" x="72.65" y="-303.8" font-family="Times,serif" font-size="9.00">Report Status</text>
</g>
<!-- System State&#45;&gt;Report Status -->
<g id="edge2" class="edge">
<title>System State&#45;&gt;Report Status</title>
<path fill="none" stroke="black" d="M231.1,-361.64C196.79,-349.81 149.64,-333.55 115.71,-321.85"/>
<polygon fill="black" stroke="black" points="116.67,-318.48 106.07,-318.53 114.39,-325.09 116.67,-318.48"/>
</g>
<!-- System Skills Status -->
<g id="node4" class="node">
<title>System Skills Status</title>
<ellipse fill="gray" stroke="black" cx="200.65" cy="-306" rx="63.52" ry="18"/>
<text text-anchor="middle" x="200.65" y="-303.8" font-family="Times,serif" font-size="9.00">System Skills Status</text>
</g>
<!-- System State&#45;&gt;System Skills Status -->
<g id="edge3" class="edge">
<title>System State&#45;&gt;System Skills Status</title>
<path fill="none" stroke="black" d="M257.11,-359.7C247.64,-350.86 235.98,-339.97 225.72,-330.4"/>
<polygon fill="black" stroke="black" points="227.9,-327.65 218.21,-323.38 223.13,-332.76 227.9,-327.65"/>
</g>
<!-- System Monitor Status -->
<g id="node5" class="node">
<title>System Monitor Status</title>
<ellipse fill="gray" stroke="black" cx="352.65" cy="-306" rx="70.37" ry="18"/>
<text text-anchor="middle" x="352.65" y="-303.8" font-family="Times,serif" font-size="9.00">System Monitor Status</text>
</g>
<!-- System State&#45;&gt;System Monitor Status -->
<g id="edge4" class="edge">
<title>System State&#45;&gt;System Monitor Status</title>
<path fill="none" stroke="black" d="M294.69,-359.7C304.34,-350.92 316.21,-340.13 326.69,-330.61"/>
<polygon fill="black" stroke="black" points="329.32,-332.94 334.37,-323.62 324.61,-327.76 329.32,-332.94"/>
</g>
<!-- Workflow -->
<g id="node7" class="node">
<title>Workflow</title>
<polygon fill="orange" stroke="black" points="512.15,-324 441.15,-324 441.15,-288 512.15,-288 512.15,-324"/>
<text text-anchor="middle" x="476.65" y="-303.8" font-family="Times,serif" font-size="9.00">Ⓜ Workflow</text>
</g>
<!-- System Monitor&#45;&gt;Workflow -->
<g id="edge6" class="edge">
<title>System Monitor&#45;&gt;Workflow</title>
<path fill="none" stroke="black" d="M476.65,-359.7C476.65,-351.98 476.65,-342.71 476.65,-334.11"/>
<polygon fill="black" stroke="black" points="480.15,-334.1 476.65,-324.1 473.15,-334.1 480.15,-334.1"/>
</g>
<!-- Fallback -->
<g id="node24" class="node">
<title>Fallback</title>
<polygon fill="orange" stroke="black" points="696.65,-324 628.65,-324 628.65,-288 696.65,-288 696.65,-324"/>
<text text-anchor="middle" x="662.65" y="-303.8" font-family="Times,serif" font-size="9.00">Ⓜ Fallback</text>
</g>
<!-- System Monitor&#45;&gt;Fallback -->
<g id="edge23" class="edge">
<title>System Monitor&#45;&gt;Fallback</title>
<path fill="none" stroke="black" d="M513.84,-363C544.11,-351.61 586.88,-335.51 618.81,-323.5"/>
<polygon fill="black" stroke="black" points="620.22,-326.71 628.35,-319.91 617.75,-320.16 620.22,-326.71"/>
</g>
<!-- System OK? -->
<g id="node8" class="node">
<title>System OK?</title>
<ellipse fill="gray" stroke="black" cx="368.65" cy="-234" rx="40.98" ry="18"/>
<text text-anchor="middle" x="368.65" y="-231.8" font-family="Times,serif" font-size="9.00">System OK?</text>
</g>
<!-- Workflow&#45;&gt;System OK? -->
<g id="edge7" class="edge">
<title>Workflow&#45;&gt;System OK?</title>
<path fill="none" stroke="black" d="M450.23,-287.88C434.85,-277.9 415.38,-265.29 399.32,-254.88"/>
<polygon fill="black" stroke="black" points="401.09,-251.85 390.79,-249.35 397.28,-257.73 401.09,-251.85"/>
</g>
<!-- Pick And Place -->
<g id="node9" class="node">
<title>Pick And Place</title>
<polygon fill="orange" stroke="black" points="525.65,-252 427.65,-252 427.65,-216 525.65,-216 525.65,-252"/>
<text text-anchor="middle" x="476.65" y="-231.8" font-family="Times,serif" font-size="9.00">Ⓜ Pick And Place</text>
</g>
<!-- Workflow&#45;&gt;Pick And Place -->
<g id="edge8" class="edge">
<title>Workflow&#45;&gt;Pick And Place</title>
<path fill="none" stroke="black" d="M476.65,-287.7C476.65,-279.98 476.65,-270.71 476.65,-262.11"/>
<polygon fill="black" stroke="black" points="480.15,-262.1 476.65,-252.1 473.15,-262.1 480.15,-262.1"/>
</g>
<!-- Active? -->
<g id="node10" class="node">
<title>Active?</title>
<ellipse fill="gray" stroke="black" cx="425.65" cy="-162" rx="28.74" ry="18"/>
<text text-anchor="middle" x="425.65" y="-159.8" font-family="Times,serif" font-size="9.00">Active?</text>
</g>
<!-- Pick And Place&#45;&gt;Active? -->
<g id="edge9" class="edge">
<title>Pick And Place&#45;&gt;Active?</title>
<path fill="none" stroke="black" d="M464.05,-215.7C457.72,-207.02 449.96,-196.37 443.08,-186.92"/>
<polygon fill="black" stroke="black" points="445.79,-184.69 437.07,-178.67 440.13,-188.81 445.79,-184.69"/>
</g>
<!-- System Skills -->
<g id="node11" class="node">
<title>System Skills</title>
<polygon fill="cyan" stroke="black" points="583.39,-154.54 583.39,-169.46 550.74,-180 504.57,-180 471.92,-169.46 471.92,-154.54 504.57,-144 550.74,-144 583.39,-154.54"/>
<text text-anchor="middle" x="527.65" y="-159.8" font-family="Times,serif" font-size="9.00">Ⓜ System Skills</text>
</g>
<!-- Pick And Place&#45;&gt;System Skills -->
<g id="edge10" class="edge">
<title>Pick And Place&#45;&gt;System Skills</title>
<path fill="none" stroke="black" d="M489.26,-215.7C495.25,-207.47 502.53,-197.48 509.13,-188.42"/>
<polygon fill="black" stroke="black" points="512.13,-190.25 515.19,-180.1 506.47,-186.13 512.13,-190.25"/>
</g>
<!-- Pick -->
<g id="node12" class="node">
<title>Pick</title>
<polygon fill="orange" stroke="black" points="221.65,-108 167.65,-108 167.65,-72 221.65,-72 221.65,-108"/>
<text text-anchor="middle" x="194.65" y="-87.8" font-family="Times,serif" font-size="9.00">Ⓜ Pick</text>
</g>
<!-- System Skills&#45;&gt;Pick -->
<g id="edge11" class="edge">
<title>System Skills&#45;&gt;Pick</title>
<path fill="none" stroke="black" d="M486.78,-149.72C479.12,-147.72 471.16,-145.73 463.65,-144 381.43,-125 284.08,-106.9 231.99,-97.56"/>
<polygon fill="black" stroke="black" points="232.35,-94.07 221.89,-95.76 231.12,-100.96 232.35,-94.07"/>
</g>
<!-- Place -->
<g id="node16" class="node">
<title>Place</title>
<polygon fill="orange" stroke="black" points="478.65,-108 424.65,-108 424.65,-72 478.65,-72 478.65,-108"/>
<text text-anchor="middle" x="451.65" y="-87.8" font-family="Times,serif" font-size="9.00">Ⓜ Place</text>
</g>
<!-- System Skills&#45;&gt;Place -->
<g id="edge15" class="edge">
<title>System Skills&#45;&gt;Place</title>
<path fill="none" stroke="black" d="M508.87,-143.7C499.48,-135.05 487.97,-124.45 477.74,-115.03"/>
<polygon fill="black" stroke="black" points="479.95,-112.3 470.22,-108.1 475.21,-117.45 479.95,-112.3"/>
</g>
<!-- Finish Pick And Place -->
<g id="node20" class="node">
<title>Finish Pick And Place</title>
<polygon fill="orange" stroke="black" points="668.15,-108 539.15,-108 539.15,-72 668.15,-72 668.15,-108"/>
<text text-anchor="middle" x="603.65" y="-87.8" font-family="Times,serif" font-size="9.00">Ⓜ Finish Pick And Place</text>
</g>
<!-- System Skills&#45;&gt;Finish Pick And Place -->
<g id="edge19" class="edge">
<title>System Skills&#45;&gt;Finish Pick And Place</title>
<path fill="none" stroke="black" d="M546.44,-143.7C555.83,-135.05 567.34,-124.45 577.57,-115.03"/>
<polygon fill="black" stroke="black" points="580.1,-117.45 585.08,-108.1 575.36,-112.3 580.1,-117.45"/>
</g>
<!-- Idle Status -->
<g id="node23" class="node">
<title>Idle Status</title>
<ellipse fill="gray" stroke="black" cx="724.65" cy="-90" rx="38.87" ry="18"/>
<text text-anchor="middle" x="724.65" y="-87.8" font-family="Times,serif" font-size="9.00">Idle Status</text>
</g>
<!-- System Skills&#45;&gt;Idle Status -->
<g id="edge22" class="edge">
<title>System Skills&#45;&gt;Idle Status</title>
<path fill="none" stroke="black" d="M564.05,-148.22C594.44,-137.54 638.9,-121.85 677.65,-108 680.21,-107.09 682.84,-106.14 685.49,-105.19"/>
<polygon fill="black" stroke="black" points="686.86,-108.42 695.08,-101.73 684.48,-101.83 686.86,-108.42"/>
</g>
<!-- System Active? -->
<g id="node13" class="node">
<title>System Active?</title>
<ellipse fill="gray" stroke="black" cx="49.65" cy="-18" rx="49.8" ry="18"/>
<text text-anchor="middle" x="49.65" y="-15.8" font-family="Times,serif" font-size="9.00">System Active?</text>
</g>
<!-- Pick&#45;&gt;System Active? -->
<g id="edge12" class="edge">
<title>Pick&#45;&gt;System Active?</title>
<path fill="none" stroke="black" d="M167.38,-75.83C144.83,-64.95 112.56,-49.37 87.5,-37.27"/>
<polygon fill="black" stroke="black" points="88.82,-34.02 78.29,-32.83 85.78,-40.33 88.82,-34.02"/>
</g>
<!-- Call Pick -->
<g id="node14" class="node">
<title>Call Pick</title>
<ellipse fill="gray" stroke="black" cx="150.65" cy="-18" rx="32.82" ry="18"/>
<text text-anchor="middle" x="150.65" y="-15.8" font-family="Times,serif" font-size="9.00">Call Pick</text>
</g>
<!-- Pick&#45;&gt;Call Pick -->
<g id="edge13" class="edge">
<title>Pick&#45;&gt;Call Pick</title>
<path fill="none" stroke="black" d="M183.78,-71.7C178.45,-63.23 171.95,-52.89 166.12,-43.61"/>
<polygon fill="black" stroke="black" points="169.09,-41.75 160.8,-35.14 163.16,-45.47 169.09,-41.75"/>
</g>
<!-- Wait 1 sec -->
<g id="node15" class="node">
<title>Wait 1 sec</title>
<ellipse fill="gray" stroke="black" cx="238.65" cy="-18" rx="36.9" ry="18"/>
<text text-anchor="middle" x="238.65" y="-15.8" font-family="Times,serif" font-size="9.00">Wait 1 sec</text>
</g>
<!-- Pick&#45;&gt;Wait 1 sec -->
<g id="edge14" class="edge">
<title>Pick&#45;&gt;Wait 1 sec</title>
<path fill="none" stroke="black" d="M205.53,-71.7C210.72,-63.44 217.03,-53.39 222.75,-44.3"/>
<polygon fill="black" stroke="black" points="225.85,-45.95 228.2,-35.62 219.92,-42.23 225.85,-45.95"/>
</g>
<!-- Pick Ready? -->
<g id="node17" class="node">
<title>Pick Ready?</title>
<ellipse fill="gray" stroke="black" cx="335.65" cy="-18" rx="41.64" ry="18"/>
<text text-anchor="middle" x="335.65" y="-15.8" font-family="Times,serif" font-size="9.00">Pick Ready?</text>
</g>
<!-- Place&#45;&gt;Pick Ready? -->
<g id="edge16" class="edge">
<title>Place&#45;&gt;Pick Ready?</title>
<path fill="none" stroke="black" d="M424.46,-72.59C407.58,-62.4 385.79,-49.26 368.03,-38.54"/>
<polygon fill="black" stroke="black" points="369.52,-35.35 359.15,-33.18 365.9,-41.34 369.52,-35.35"/>
</g>
<!-- Call Place -->
<g id="node18" class="node">
<title>Call Place</title>
<ellipse fill="gray" stroke="black" cx="430.65" cy="-18" rx="35.59" ry="18"/>
<text text-anchor="middle" x="430.65" y="-15.8" font-family="Times,serif" font-size="9.00">Call Place</text>
</g>
<!-- Place&#45;&gt;Call Place -->
<g id="edge17" class="edge">
<title>Place&#45;&gt;Call Place</title>
<path fill="none" stroke="black" d="M446.46,-71.7C444.12,-63.9 441.3,-54.51 438.7,-45.83"/>
<polygon fill="black" stroke="black" points="442.01,-44.68 435.78,-36.1 435.3,-46.69 442.01,-44.68"/>
</g>
<!-- Wait 1 sec* -->
<g id="node19" class="node">
<title>Wait 1 sec*</title>
<ellipse fill="gray" stroke="black" cx="523.65" cy="-18" rx="39.02" ry="18"/>
<text text-anchor="middle" x="523.65" y="-15.8" font-family="Times,serif" font-size="9.00">Wait 1 sec*</text>
</g>
<!-- Place&#45;&gt;Wait 1 sec* -->
<g id="edge18" class="edge">
<title>Place&#45;&gt;Wait 1 sec*</title>
<path fill="none" stroke="black" d="M469.45,-71.7C478.74,-62.66 490.23,-51.5 500.23,-41.77"/>
<polygon fill="black" stroke="black" points="502.8,-44.15 507.53,-34.67 497.92,-39.13 502.8,-44.15"/>
</g>
<!-- Place Ready? -->
<g id="node21" class="node">
<title>Place Ready?</title>
<ellipse fill="gray" stroke="black" cx="625.65" cy="-18" rx="44.41" ry="18"/>
<text text-anchor="middle" x="625.65" y="-15.8" font-family="Times,serif" font-size="9.00">Place Ready?</text>
</g>
<!-- Finish Pick And Place&#45;&gt;Place Ready? -->
<g id="edge20" class="edge">
<title>Finish Pick And Place&#45;&gt;Place Ready?</title>
<path fill="none" stroke="black" d="M609.09,-71.7C611.54,-63.9 614.49,-54.51 617.22,-45.83"/>
<polygon fill="black" stroke="black" points="620.62,-46.69 620.28,-36.1 613.94,-44.59 620.62,-46.69"/>
</g>
<!-- Finish Pick And Place* -->
<g id="node22" class="node">
<title>Finish Pick And Place*</title>
<ellipse fill="gray" stroke="black" cx="758.65" cy="-18" rx="70.37" ry="18"/>
<text text-anchor="middle" x="758.65" y="-15.8" font-family="Times,serif" font-size="9.00">Finish Pick And Place*</text>
</g>
<!-- Finish Pick And Place&#45;&gt;Finish Pick And Place* -->
<g id="edge21" class="edge">
<title>Finish Pick And Place&#45;&gt;Finish Pick And Place*</title>
<path fill="none" stroke="black" d="M641.57,-71.88C664.18,-61.67 692.93,-48.68 716.28,-38.14"/>
<polygon fill="black" stroke="black" points="717.92,-41.23 725.59,-33.93 715.04,-34.86 717.92,-41.23"/>
</g>
<!-- Active?* -->
<g id="node25" class="node">
<title>Active?*</title>
<ellipse fill="gray" stroke="black" cx="575.65" cy="-234" rx="31.51" ry="18"/>
<text text-anchor="middle" x="575.65" y="-231.8" font-family="Times,serif" font-size="9.00">Active?*</text>
</g>
<!-- Fallback&#45;&gt;Active?* -->
<g id="edge24" class="edge">
<title>Fallback&#45;&gt;Active?*</title>
<path fill="none" stroke="black" d="M641.15,-287.7C629.01,-277.93 613.78,-265.67 601.05,-255.44"/>
<polygon fill="black" stroke="black" points="603.1,-252.59 593.12,-249.05 598.71,-258.05 603.1,-252.59"/>
</g>
<!-- Abort Pick -->
<g id="node26" class="node">
<title>Abort Pick</title>
<ellipse fill="gray" stroke="black" cx="662.65" cy="-234" rx="37.56" ry="18"/>
<text text-anchor="middle" x="662.65" y="-231.8" font-family="Times,serif" font-size="9.00">Abort Pick</text>
</g>
<!-- Fallback&#45;&gt;Abort Pick -->
<g id="edge25" class="edge">
<title>Fallback&#45;&gt;Abort Pick</title>
<path fill="none" stroke="black" d="M662.65,-287.7C662.65,-279.98 662.65,-270.71 662.65,-262.11"/>
<polygon fill="black" stroke="black" points="666.15,-262.1 662.65,-252.1 659.15,-262.1 666.15,-262.1"/>
</g>
<!-- Abort Place -->
<g id="node27" class="node">
<title>Abort Place</title>
<ellipse fill="gray" stroke="black" cx="759.65" cy="-234" rx="40.98" ry="18"/>
<text text-anchor="middle" x="759.65" y="-231.8" font-family="Times,serif" font-size="9.00">Abort Place</text>
</g>
<!-- Fallback&#45;&gt;Abort Place -->
<g id="edge26" class="edge">
<title>Fallback&#45;&gt;Abort Place</title>
<path fill="none" stroke="black" d="M686.63,-287.7C700.01,-278.04 716.77,-265.95 730.86,-255.78"/>
<polygon fill="black" stroke="black" points="733.17,-258.43 739.23,-249.74 729.07,-252.75 733.17,-258.43"/>
</g>
<!-- Abort Pick And Place -->
<g id="node28" class="node">
<title>Abort Pick And Place</title>
<ellipse fill="gray" stroke="black" cx="884.65" cy="-234" rx="66.29" ry="18"/>
<text text-anchor="middle" x="884.65" y="-231.8" font-family="Times,serif" font-size="9.00">Abort Pick And Place</text>
</g>
<!-- Fallback&#45;&gt;Abort Pick And Place -->
<g id="edge27" class="edge">
<title>Fallback&#45;&gt;Abort Pick And Place</title>
<path fill="none" stroke="black" d="M696.85,-294.22C733.22,-282.75 791.17,-264.48 833.08,-251.26"/>
<polygon fill="black" stroke="black" points="834.35,-254.53 842.83,-248.19 832.24,-247.86 834.35,-254.53"/>
</g>
</g>
</svg>
